<svg width="64" height="64" viewBox="0 0 64 64" fill="none" xmlns="http://www.w3.org/2000/svg">
<path d="M22.0059 31.8005C24.6559 29.1471 28.2515 27.6562 32.0015 27.6562C35.7515 27.6562 39.3469 29.1471 41.9971 31.8005" stroke="white" stroke-width="1.5" stroke-miterlimit="10"/>
<path d="M26.1699 35.9641C27.7179 34.4209 29.8149 33.5547 32.0006 33.5547C34.1862 33.5547 36.2833 34.4209 37.8312 35.9641" stroke="white" stroke-width="1.5" stroke-miterlimit="10"/>
<path d="M18 27.7948C21.7148 24.0844 26.7503 22 32.0008 22C37.2513 22 42.2873 24.0844 46.0016 27.7948" stroke="white" stroke-width="1.5" stroke-miterlimit="10"/>
<path d="M33.3876 40.4077C33.3876 41.1742 32.7664 41.7958 31.9995 41.7958C31.2325 41.7958 30.6113 41.1741 30.6113 40.4077C30.6113 39.6407 31.2325 39.0195 31.9995 39.0195C32.7664 39.0195 33.3876 39.6408 33.3876 40.4077Z" fill="white"/>
</svg>
