<svg width="40" height="40" viewBox="0 0 40 40" fill="none" xmlns="http://www.w3.org/2000/svg">
<path d="M13.7074 21.7166C13.7079 21.7192 13.7083 21.7217 13.7087 21.7241C13.8706 22.6876 13.9966 23.6759 13.9966 24.4187C13.9966 26.6352 15.0015 27.5051 15.6006 27.8265C15.972 28.0256 16.3835 28.125 16.7934 28.125C17.2224 28.125 17.6491 28.0162 18.0252 27.7989C18.6912 27.4143 19.059 26.7753 19.034 26.0462C19.0208 25.6469 19.0014 25.2363 18.9818 24.824C18.8933 22.957 18.8019 21.0264 19.2696 20.0796C19.9011 18.8013 19.9926 17.1522 19.9965 17.0756C20.0337 16.3651 19.7707 15.69 19.2559 15.1744C18.7409 14.659 18.0459 14.375 17.2988 14.375C16.5422 14.375 15.7993 14.5665 15.1495 14.929C13.6133 15.7863 12.8387 17.5235 13.222 19.2517C13.3635 19.8898 13.5519 20.7915 13.7074 21.7168L13.7074 21.7166ZM17.6718 27.2441C17.1464 27.5473 16.481 27.5539 15.935 27.2611C15.1245 26.8263 14.678 25.8169 14.678 24.4187C14.678 23.6587 14.5539 22.6631 14.393 21.6918C14.8691 20.0039 16.0787 19.2325 16.5263 18.9991C16.9789 19.3395 18.2671 20.4181 18.2557 21.6689C18.2557 21.6705 18.2567 21.672 18.2567 21.6736C18.1961 22.6366 18.249 23.7554 18.301 24.8532C18.3203 25.2628 18.3397 25.6706 18.3532 26.0672C18.3695 26.5553 18.1213 26.9844 17.6717 27.2441H17.6718ZM15.4942 15.4892C16.0392 15.1851 16.6633 15.0243 17.2989 15.0243C17.8576 15.0243 18.3772 15.2366 18.7622 15.6221C19.1472 16.0074 19.3439 16.5122 19.3159 17.0434V17.0438C19.3152 17.0597 19.2291 18.6373 18.6529 19.8032C18.5961 19.9181 18.5479 20.0454 18.5044 20.1796C18.0092 19.3214 17.2282 18.6926 16.9041 18.4556V17.2599C16.9041 17.0806 16.7516 16.9354 16.5634 16.9354C16.3751 16.9354 16.2228 17.0808 16.2228 17.2599V18.4179C15.7978 18.6376 14.8252 19.247 14.1684 20.4547C14.0699 19.9515 13.9717 19.4896 13.8891 19.1177C13.5661 17.6633 14.2112 16.2051 15.4943 15.489L15.4942 15.4892Z" fill="#FFCD1A"/>
<path d="M21.0183 22.3241C20.9986 22.7364 20.9794 23.1469 20.9661 23.5464C20.9412 24.2756 21.3088 24.9144 21.9749 25.2989C22.351 25.5162 22.7777 25.625 23.2066 25.625C23.6166 25.625 24.0281 25.5257 24.3994 25.3265C24.9986 25.0052 26.0034 24.1353 26.0034 21.9188C26.0034 21.176 26.1295 20.1876 26.2913 19.224C26.2917 19.2214 26.2922 19.2191 26.2926 19.2166C26.4481 18.2913 26.6364 17.3897 26.778 16.7519C27.1612 15.0237 26.3867 13.2865 24.8506 12.4292C24.2011 12.0665 23.4581 11.875 22.7011 11.875C21.9542 11.875 21.2591 12.159 20.7441 12.6745C20.2293 13.1899 19.9662 13.8649 20.0035 14.5756C20.0075 14.6521 20.099 16.3012 20.7304 17.5796C21.1984 18.5262 21.1068 20.4568 21.0183 22.3241L21.0183 22.3241ZM24.065 24.7609C23.5191 25.0539 22.8536 25.0472 22.3283 24.7439C21.8789 24.4844 21.6306 24.0554 21.6468 23.5671C21.6605 23.1706 21.6798 22.7628 21.699 22.3532C21.7511 21.2552 21.8038 20.1362 21.7432 19.1734C21.7432 19.1718 21.7442 19.1703 21.7442 19.1686C21.733 17.9188 23.0196 16.8406 23.4728 16.4997C23.92 16.7364 25.1346 17.5184 25.6069 19.1919C25.446 20.1632 25.3218 21.1586 25.3218 21.9188C25.322 23.3168 24.8755 24.3261 24.065 24.7609H24.065ZM21.2379 13.1221C21.6229 12.7367 22.1426 12.5243 22.7012 12.5243C23.337 12.5243 23.9611 12.6851 24.5058 12.9892C25.7887 13.7052 26.4339 15.1633 26.1111 16.6179C26.0286 16.9898 25.9305 17.4517 25.8318 17.955C25.175 16.7472 24.2024 16.1378 23.7775 15.9182V14.7601C23.7775 14.5808 23.6251 14.4356 23.4368 14.4356C23.2485 14.4356 23.0962 14.581 23.0962 14.7601V15.9558C22.7721 16.1927 21.9911 16.8216 21.4959 17.6798C21.4525 17.5456 21.4042 17.4185 21.3475 17.3036C20.7728 16.1408 20.685 14.5598 20.6844 14.5439V14.5436C20.6565 14.0124 20.8531 13.5076 21.2379 13.1222L21.2379 13.1221Z" fill="#FFCD1A"/>
</svg>
