<svg width="40" height="40" viewBox="0 0 40 40" fill="none" xmlns="http://www.w3.org/2000/svg">
<path d="M20.1691 10.0648H20.1475C20.1225 10.0476 20.0947 10.0345 20.0654 10.026C20.0425 10.0135 20.0178 10.0048 19.9921 10H19.8279C19.8022 10.0048 19.7776 10.0135 19.7546 10.026C19.7253 10.0345 19.6975 10.0476 19.6725 10.0648H19.6509C19.3788 10.272 13 15.1698 13 22.0798C13 24.5484 14.317 26.8296 16.455 28.0638C18.593 29.2984 21.227 29.2984 23.365 28.0638C25.503 26.8295 26.82 24.5483 26.82 22.0798C26.82 15.1698 20.4411 10.2721 20.1691 10.0648H20.1691ZM19.91 28.126C18.3065 28.126 16.7685 27.489 15.6346 26.3552C14.5008 25.2213 13.8638 23.6833 13.8638 22.0798C13.8638 16.3746 18.7397 11.965 19.91 10.9804C21.0976 11.9521 25.9563 16.3613 25.9563 22.0798C25.9563 23.6833 25.3193 25.2213 24.1854 26.3552C23.0515 27.489 21.5135 28.126 19.91 28.126ZM22.4191 20.3523L18.014 24.7574C17.9326 24.8382 17.8222 24.8833 17.7074 24.8827C17.5927 24.8833 17.4823 24.8382 17.4009 24.7574C17.3192 24.6762 17.2731 24.566 17.2731 24.4509C17.2731 24.3356 17.3192 24.2253 17.4009 24.1441L21.806 19.7432V19.7434C21.887 19.6617 21.9975 19.6156 22.1126 19.6156C22.2277 19.6156 22.3381 19.6617 22.4191 19.7434C22.5867 19.9117 22.5867 20.1838 22.4191 20.3523V20.3523ZM19.1024 21.4407C19.3823 21.1605 19.5395 20.7807 19.5395 20.3847C19.5395 19.9886 19.3823 19.6088 19.1024 19.3287C18.8186 19.0561 18.4401 18.9037 18.0464 18.9037C17.6529 18.9037 17.2744 19.056 16.9906 19.3287C16.7106 19.6088 16.5535 19.9886 16.5535 20.3847C16.5535 20.7807 16.7106 21.1605 16.9906 21.4407C17.2707 21.7204 17.6505 21.8776 18.0464 21.8776C18.4424 21.8776 18.8222 21.7204 19.1024 21.4407ZM17.4181 20.3523C17.4221 20.1907 17.4869 20.0365 17.5995 19.9204C17.715 19.807 17.8696 19.7423 18.0314 19.739C18.1981 19.7344 18.3599 19.7964 18.4808 19.9117C18.6017 20.0268 18.6715 20.1855 18.6749 20.3523C18.6719 20.515 18.6051 20.67 18.4891 20.7842C18.2404 21.0223 17.8482 21.0223 17.5995 20.7842C17.4861 20.6687 17.4214 20.514 17.4181 20.3523H17.4181ZM20.7177 23.0212C20.4387 23.3018 20.2821 23.6816 20.2827 24.0772C20.2835 24.473 20.4408 24.8523 20.7208 25.132C21.0007 25.4118 21.3799 25.5689 21.7758 25.5693C22.1706 25.5726 22.5504 25.417 22.8295 25.1374C23.1094 24.8573 23.2665 24.4775 23.2665 24.0814C23.2665 23.6856 23.1094 23.3058 22.8295 23.0256C22.5435 22.7561 22.1649 22.6067 21.7719 22.6082C21.3788 22.61 21.0015 22.7623 20.7177 23.0341L20.7177 23.0212ZM22.2206 24.5241C21.9718 24.7622 21.5797 24.7622 21.331 24.5241C21.2149 24.4102 21.1482 24.255 21.1451 24.0922C21.1476 23.745 21.4286 23.4641 21.7758 23.4618C21.9385 23.4649 22.0935 23.5314 22.2076 23.6475C22.3216 23.7626 22.3868 23.9174 22.3891 24.0793C22.396 24.2482 22.3355 24.4131 22.2206 24.5372L22.2206 24.5241Z" fill="#FFCD1A"/>
</svg>
