<svg width="70" height="71" viewBox="0 0 70 71" fill="none" xmlns="http://www.w3.org/2000/svg">
<g clip-path="url(#clip0_5381_12922)">
<path d="M69.9549 0H0V9.66957H69.9549V0Z" fill="white"/>
<path d="M29.4262 20.3086H0V29.9782H29.4262V20.3086Z" fill="white"/>
<path d="M70.0004 20.3086H40.5742V29.9782H70.0004V20.3086Z" fill="white"/>
<path d="M6.40775 39.6944C8.90033 39.6944 10.921 37.6738 10.921 35.1812C10.921 32.6886 8.90033 30.668 6.40775 30.668C3.91517 30.668 1.89453 32.6886 1.89453 35.1812C1.89453 37.6738 3.91517 39.6944 6.40775 39.6944Z" fill="white"/>
<path d="M22.521 39.6944C25.0136 39.6944 27.0342 37.6738 27.0342 35.1812C27.0342 32.6886 25.0136 30.668 22.521 30.668C20.0284 30.668 18.0078 32.6886 18.0078 35.1812C18.0078 37.6738 20.0284 39.6944 22.521 39.6944Z" fill="white"/>
<path d="M47.232 39.6944C49.7246 39.6944 51.7452 37.6738 51.7452 35.1812C51.7452 32.6886 49.7246 30.668 47.232 30.668C44.7394 30.668 42.7188 32.6886 42.7188 35.1812C42.7188 37.6738 44.7394 39.6944 47.232 39.6944Z" fill="white"/>
<path d="M63.3433 39.6944C65.8359 39.6944 67.8565 37.6738 67.8565 35.1812C67.8565 32.6886 65.8359 30.668 63.3433 30.668C60.8507 30.668 58.8301 32.6886 58.8301 35.1812C58.8301 37.6738 60.8507 39.6944 63.3433 39.6944Z" fill="white"/>
<path d="M29.4262 51H0V60.6696H29.4262V51Z" fill="white"/>
<path d="M70.0004 51H40.5742V60.6696H70.0004V51Z" fill="white"/>
<path d="M6.40775 70.3819C8.90033 70.3819 10.921 68.3613 10.921 65.8687C10.921 63.3761 8.90033 61.3555 6.40775 61.3555C3.91517 61.3555 1.89453 63.3761 1.89453 65.8687C1.89453 68.3613 3.91517 70.3819 6.40775 70.3819Z" fill="white"/>
<path d="M22.521 70.3819C25.0136 70.3819 27.0342 68.3613 27.0342 65.8687C27.0342 63.3761 25.0136 61.3555 22.521 61.3555C20.0284 61.3555 18.0078 63.3761 18.0078 65.8687C18.0078 68.3613 20.0284 70.3819 22.521 70.3819Z" fill="white"/>
<path d="M47.232 70.3819C49.7246 70.3819 51.7452 68.3613 51.7452 65.8687C51.7452 63.3761 49.7246 61.3555 47.232 61.3555C44.7394 61.3555 42.7188 63.3761 42.7188 65.8687C42.7188 68.3613 44.7394 70.3819 47.232 70.3819Z" fill="white"/>
<path d="M63.3433 70.3819C65.8359 70.3819 67.8565 68.3613 67.8565 65.8687C67.8565 63.3761 65.8359 61.3555 63.3433 61.3555C60.8507 61.3555 58.8301 63.3761 58.8301 65.8687C58.8301 68.3613 60.8507 70.3819 63.3433 70.3819Z" fill="white"/>
</g>
<defs>
<clipPath id="clip0_5381_12922">
<rect width="70" height="70.3836" fill="white"/>
</clipPath>
</defs>
</svg>
