<svg width="48" height="48" viewBox="0 0 48 48" fill="none" xmlns="http://www.w3.org/2000/svg">
<path d="M15.6284 15.75C15.0073 15.75 14.5077 16.2558 14.5077 16.8847V29.3558C14.5077 29.4814 14.6002 29.5743 14.7249 29.5743H33.2754C33.4 29.5743 33.4926 29.4814 33.4926 29.3558V16.8847C33.4926 16.2566 32.9929 15.75 32.3718 15.75H15.6284ZM15.6284 16.1906H32.3718C32.7525 16.1906 33.0582 16.5005 33.0582 16.8865V29.1356H14.9404V16.4927H15.1032C15.2278 16.3202 15.3997 16.1912 15.6285 16.1912L15.6284 16.1906ZM13.134 29.9538C12.5046 29.9538 12 30.4654 12 31.1002C12 31.7374 12.5063 32.25 13.134 32.25H34.8693C35.4961 32.25 36 31.7367 36 31.1002C36 30.4638 35.4971 29.9538 34.8693 29.9538C34.7447 29.9538 34.6521 30.0467 34.6521 30.1723C34.6521 30.2979 34.7454 30.3925 34.8693 30.3925C35.2526 30.3925 35.5681 30.7157 35.5681 31.1019C35.5681 31.4896 35.2517 31.8113 34.8693 31.8113H13.134C12.7516 31.8113 12.4327 31.4914 12.4327 31.1019C12.4327 30.7125 12.7507 30.3925 13.134 30.3925C13.2579 30.3925 13.3512 30.2979 13.3512 30.1723C13.3512 30.0467 13.2586 29.9538 13.134 29.9538V29.9538Z" stroke="white" stroke-width="0.5"/>
</svg>
