<svg width="70" height="71" viewBox="0 0 70 71" fill="none" xmlns="http://www.w3.org/2000/svg">
<g clip-path="url(#clip0_5381_12859)">
<path d="M70 0H0V9.67581H70V0Z" fill="white"/>
<path d="M4.51613 29.6807C7.01032 29.6807 9.03226 27.6588 9.03226 25.1646C9.03226 22.6704 7.01032 20.6484 4.51613 20.6484C2.02194 20.6484 0 22.6704 0 25.1646C0 27.6588 2.02194 29.6807 4.51613 29.6807Z" fill="white"/>
<path d="M24.8384 29.6807C27.3326 29.6807 29.3545 27.6588 29.3545 25.1646C29.3545 22.6704 27.3326 20.6484 24.8384 20.6484C22.3442 20.6484 20.3223 22.6704 20.3223 25.1646C20.3223 27.6588 22.3442 29.6807 24.8384 29.6807Z" fill="white"/>
<path d="M4.51613 50.0049C7.01032 50.0049 9.03226 47.983 9.03226 45.4888C9.03226 42.9946 7.01032 40.9727 4.51613 40.9727C2.02194 40.9727 0 42.9946 0 45.4888C0 47.983 2.02194 50.0049 4.51613 50.0049Z" fill="white"/>
<path d="M24.8384 50.0049C27.3326 50.0049 29.3545 47.983 29.3545 45.4888C29.3545 42.9946 27.3326 40.9727 24.8384 40.9727C22.3442 40.9727 20.3223 42.9946 20.3223 45.4888C20.3223 47.983 22.3442 50.0049 24.8384 50.0049Z" fill="white"/>
<path d="M45.1616 50.0049C47.6558 50.0049 49.6778 47.983 49.6778 45.4888C49.6778 42.9946 47.6558 40.9727 45.1616 40.9727C42.6674 40.9727 40.6455 42.9946 40.6455 45.4888C40.6455 47.983 42.6674 50.0049 45.1616 50.0049Z" fill="white"/>
<path d="M65.4839 29.6807C67.9781 29.6807 70 27.6588 70 25.1646C70 22.6704 67.9781 20.6484 65.4839 20.6484C62.9897 20.6484 60.9678 22.6704 60.9678 25.1646C60.9678 27.6588 62.9897 29.6807 65.4839 29.6807Z" fill="white"/>
<path d="M65.4839 50.0049C67.9781 50.0049 70 47.983 70 45.4888C70 42.9946 67.9781 40.9727 65.4839 40.9727C62.9897 40.9727 60.9678 42.9946 60.9678 45.4888C60.9678 47.983 62.9897 50.0049 65.4839 50.0049Z" fill="white"/>
<path d="M4.51613 70.3291C7.01032 70.3291 9.03226 68.3072 9.03226 65.813C9.03226 63.3188 7.01032 61.2969 4.51613 61.2969C2.02194 61.2969 0 63.3188 0 65.813C0 68.3072 2.02194 70.3291 4.51613 70.3291Z" fill="white"/>
<path d="M14.6773 29.6807C17.1715 29.6807 19.1934 27.6588 19.1934 25.1646C19.1934 22.6704 17.1715 20.6484 14.6773 20.6484C12.1831 20.6484 10.1611 22.6704 10.1611 25.1646C10.1611 27.6588 12.1831 29.6807 14.6773 29.6807Z" fill="white"/>
<path d="M45.1616 29.6807C47.6558 29.6807 49.6778 27.6588 49.6778 25.1646C49.6778 22.6704 47.6558 20.6484 45.1616 20.6484C42.6674 20.6484 40.6455 22.6704 40.6455 25.1646C40.6455 27.6588 42.6674 29.6807 45.1616 29.6807Z" fill="white"/>
<path d="M55.3228 29.6807C57.817 29.6807 59.8389 27.6588 59.8389 25.1646C59.8389 22.6704 57.817 20.6484 55.3228 20.6484C52.8286 20.6484 50.8066 22.6704 50.8066 25.1646C50.8066 27.6588 52.8286 29.6807 55.3228 29.6807Z" fill="white"/>
<path d="M14.6773 50.0049C17.1715 50.0049 19.1934 47.983 19.1934 45.4888C19.1934 42.9946 17.1715 40.9727 14.6773 40.9727C12.1831 40.9727 10.1611 42.9946 10.1611 45.4888C10.1611 47.983 12.1831 50.0049 14.6773 50.0049Z" fill="white"/>
<path d="M14.6773 70.3291C17.1715 70.3291 19.1934 68.3072 19.1934 65.813C19.1934 63.3188 17.1715 61.2969 14.6773 61.2969C12.1831 61.2969 10.1611 63.3188 10.1611 65.813C10.1611 68.3072 12.1831 70.3291 14.6773 70.3291Z" fill="white"/>
<path d="M24.8384 70.3291C27.3326 70.3291 29.3545 68.3072 29.3545 65.813C29.3545 63.3188 27.3326 61.2969 24.8384 61.2969C22.3442 61.2969 20.3223 63.3188 20.3223 65.813C20.3223 68.3072 22.3442 70.3291 24.8384 70.3291Z" fill="white"/>
<path d="M45.1616 70.3291C47.6558 70.3291 49.6778 68.3072 49.6778 65.813C49.6778 63.3188 47.6558 61.2969 45.1616 61.2969C42.6674 61.2969 40.6455 63.3188 40.6455 65.813C40.6455 68.3072 42.6674 70.3291 45.1616 70.3291Z" fill="white"/>
<path d="M65.4839 70.3291C67.9781 70.3291 70 68.3072 70 65.813C70 63.3188 67.9781 61.2969 65.4839 61.2969C62.9897 61.2969 60.9678 63.3188 60.9678 65.813C60.9678 68.3072 62.9897 70.3291 65.4839 70.3291Z" fill="white"/>
<path d="M55.3228 50.0049C57.817 50.0049 59.8389 47.983 59.8389 45.4888C59.8389 42.9946 57.817 40.9727 55.3228 40.9727C52.8286 40.9727 50.8066 42.9946 50.8066 45.4888C50.8066 47.983 52.8286 50.0049 55.3228 50.0049Z" fill="white"/>
<path d="M55.3228 70.3291C57.817 70.3291 59.8389 68.3072 59.8389 65.813C59.8389 63.3188 57.817 61.2969 55.3228 61.2969C52.8286 61.2969 50.8066 63.3188 50.8066 65.813C50.8066 68.3072 52.8286 70.3291 55.3228 70.3291Z" fill="white"/>
</g>
<defs>
<clipPath id="clip0_5381_12859">
<rect width="70" height="70.3274" fill="white"/>
</clipPath>
</defs>
</svg>
