<svg width="70" height="70" viewBox="0 0 70 70" fill="none" xmlns="http://www.w3.org/2000/svg">
<g clip-path="url(#clip0_5704_15538)">
<path d="M59.5446 18.6371V10.7031H10.4453V59.557H59.5446V50.1053V18.6371ZM20.0196 49.9825V20.032H49.9925V49.9825H20.0196Z" fill="white"/>
<path d="M4.46357 49.099C6.92874 49.099 8.92715 47.1006 8.92715 44.6354C8.92715 42.1703 6.92874 40.1719 4.46357 40.1719C1.99841 40.1719 0 42.1703 0 44.6354C0 47.1006 1.99841 49.099 4.46357 49.099Z" fill="white"/>
<path d="M4.46357 29.0131C6.92874 29.0131 8.92715 27.0147 8.92715 24.5495C8.92715 22.0843 6.92874 20.0859 4.46357 20.0859C1.99841 20.0859 0 22.0843 0 24.5495C0 27.0147 1.99841 29.0131 4.46357 29.0131Z" fill="white"/>
<path d="M24.862 8.92715C27.3272 8.92715 29.3256 6.92874 29.3256 4.46357C29.3256 1.99841 27.3272 0 24.862 0C22.3968 0 20.3984 1.99841 20.3984 4.46357C20.3984 6.92874 22.3968 8.92715 24.862 8.92715Z" fill="white"/>
<path d="M44.9479 8.92715C47.4131 8.92715 49.4115 6.92874 49.4115 4.46357C49.4115 1.99841 47.4131 0 44.9479 0C42.4828 0 40.4844 1.99841 40.4844 4.46357C40.4844 6.92874 42.4828 8.92715 44.9479 8.92715Z" fill="white"/>
<path d="M24.862 69.185C27.3272 69.185 29.3256 67.1865 29.3256 64.7214C29.3256 62.2562 27.3272 60.2578 24.862 60.2578C22.3968 60.2578 20.3984 62.2562 20.3984 64.7214C20.3984 67.1865 22.3968 69.185 24.862 69.185Z" fill="white"/>
<path d="M44.9479 69.185C47.4131 69.185 49.4115 67.1865 49.4115 64.7214C49.4115 62.2562 47.4131 60.2578 44.9479 60.2578C42.4828 60.2578 40.4844 62.2562 40.4844 64.7214C40.4844 67.1865 42.4828 69.185 44.9479 69.185Z" fill="white"/>
<path d="M65.5378 49.099C68.003 49.099 70.0014 47.1006 70.0014 44.6354C70.0014 42.1703 68.003 40.1719 65.5378 40.1719C63.0726 40.1719 61.0742 42.1703 61.0742 44.6354C61.0742 47.1006 63.0726 49.099 65.5378 49.099Z" fill="white"/>
<path d="M65.5378 29.0131C68.003 29.0131 70.0014 27.0147 70.0014 24.5495C70.0014 22.0843 68.003 20.0859 65.5378 20.0859C63.0726 20.0859 61.0742 22.0843 61.0742 24.5495C61.0742 27.0147 63.0726 29.0131 65.5378 29.0131Z" fill="white"/>
</g>
<defs>
<clipPath id="clip0_5704_15538">
<rect width="70" height="69.1854" fill="white"/>
</clipPath>
</defs>
</svg>
