<svg width="40" height="40" viewBox="0 0 40 40" fill="none" xmlns="http://www.w3.org/2000/svg">
<path d="M19.9147 23.7312V14.0616C19.9147 13.8472 19.7394 13.6719 19.525 13.6719C19.3107 13.6719 19.1353 13.8472 19.1353 14.0616V23.7312C18.2741 23.9105 17.623 24.6744 17.623 25.5903C17.623 26.6386 18.4766 27.4923 19.525 27.4923C20.5734 27.4923 21.427 26.6387 21.427 25.5903C21.4229 24.6744 20.776 23.9105 19.9147 23.7312V23.7312ZM19.5249 26.7127C18.9091 26.7127 18.4024 26.2099 18.4024 25.5903C18.4024 24.9706 18.9052 24.4678 19.5249 24.4678C20.1446 24.4678 20.6473 24.9706 20.6473 25.5903C20.6475 26.2099 20.1408 26.7127 19.5249 26.7127Z" fill="#FFCD1A"/>
<path d="M21.5102 22.2383V11.9878C21.5102 10.8926 20.6176 10 19.5224 10C18.4272 10 17.5346 10.8926 17.5346 11.9878L17.5348 22.2383C16.3499 22.9399 15.625 24.2026 15.625 25.5901C15.625 27.7376 17.3749 29.4875 19.5224 29.4875C21.6699 29.4875 23.4198 27.7376 23.4198 25.5901C23.4239 24.2026 22.6951 22.9399 21.5102 22.2383H21.5102ZM19.5263 28.7079C17.8076 28.7079 16.4083 27.3087 16.4083 25.5899C16.4083 24.4167 17.0592 23.3527 18.1075 22.8149C18.236 22.7487 18.3179 22.6161 18.3179 22.468L18.3181 11.9878C18.3181 11.3213 18.8598 10.7796 19.5263 10.7796C20.1929 10.7796 20.7346 11.3213 20.7346 11.9878V22.4722C20.7346 22.6203 20.8165 22.7527 20.945 22.8191C21.9934 23.3569 22.6442 24.4209 22.6442 25.5941C22.6444 27.309 21.2451 28.7082 19.5264 28.7082L19.5263 28.7079Z" fill="#FFCD1A"/>
<path d="M24.2376 12.0156H22.5811C22.3668 12.0156 22.1914 12.191 22.1914 12.4053C22.1914 12.6197 22.3668 12.795 22.5811 12.795H24.2376C24.4519 12.795 24.6273 12.6197 24.6273 12.4053C24.6273 12.191 24.4519 12.0156 24.2376 12.0156Z" fill="#FFCD1A"/>
<path d="M22.5811 14.7442H23.6841C23.8984 14.7442 24.0738 14.5689 24.0738 14.3545C24.0738 14.1402 23.8984 13.9648 23.6841 13.9648H22.5811C22.3668 13.9648 22.1914 14.1402 22.1914 14.3545C22.1914 14.5689 22.3668 14.7442 22.5811 14.7442Z" fill="#FFCD1A"/>
<path d="M24.2376 15.9102H22.5811C22.3668 15.9102 22.1914 16.0855 22.1914 16.2998C22.1914 16.5142 22.3668 16.6895 22.5811 16.6895H24.2376C24.4519 16.6895 24.6273 16.5142 24.6273 16.2998C24.6273 16.0855 24.4519 15.9102 24.2376 15.9102Z" fill="#FFCD1A"/>
<path d="M22.5811 18.6427H23.6841C23.8984 18.6427 24.0738 18.4673 24.0738 18.253C24.0738 18.0386 23.8984 17.8633 23.6841 17.8633H22.5811C22.3668 17.8633 22.1914 18.0386 22.1914 18.253C22.1914 18.4673 22.3668 18.6427 22.5811 18.6427Z" fill="#FFCD1A"/>
<path d="M24.2376 19.8086H22.5811C22.3668 19.8086 22.1914 19.9839 22.1914 20.1983C22.1914 20.4126 22.3668 20.588 22.5811 20.588H24.2376C24.4519 20.588 24.6273 20.4126 24.6273 20.1983C24.6273 19.9839 24.4519 19.8086 24.2376 19.8086Z" fill="#FFCD1A"/>
</svg>
