<svg width="64" height="64" viewBox="0 0 64 64" fill="none" xmlns="http://www.w3.org/2000/svg">
<path d="M24.904 43V20.6H32.936C34.8133 20.6 36.424 20.8987 37.768 21.496C39.112 22.0933 40.1467 22.9573 40.872 24.088C41.5973 25.1973 41.96 26.552 41.96 28.152C41.96 29.7093 41.5973 31.0533 40.872 32.184C40.1467 33.3147 39.112 34.1787 37.768 34.776C36.424 35.3733 34.8133 35.672 32.936 35.672H25.8L26.536 34.904V43H24.904ZM26.536 35L25.8 34.2H32.936C35.3467 34.2 37.1707 33.6773 38.408 32.632C39.6667 31.5653 40.296 30.072 40.296 28.152C40.296 26.2107 39.6667 24.7173 38.408 23.672C37.1707 22.6053 35.3467 22.072 32.936 22.072H25.8L26.536 21.272V35Z" fill="white"/>
</svg>
