<svg width="40" height="40" viewBox="0 0 40 40" fill="none" xmlns="http://www.w3.org/2000/svg">
<path d="M29.0981 18.6041C29.0712 18.2156 29.0354 17.83 28.9846 17.4595H28.9845C28.9771 17.4151 28.9671 17.3712 28.9546 17.328C28.9375 17.2659 28.9236 17.2031 28.9128 17.1397C28.9293 17.0677 28.9187 16.9921 28.8829 16.9274C28.8278 16.8423 28.7334 16.7908 28.6318 16.7908C28.5304 16.7908 28.4358 16.8423 28.3809 16.9274C28.3181 17.035 26.8477 19.5396 25.1232 18.6787C23.5094 17.8718 21.0348 17.7821 19.9766 17.7821C20.0723 17.5879 20.156 17.3936 20.2277 17.2023L20.2276 17.2024C20.6675 16.0056 20.5028 14.67 19.7853 13.616C19.1993 12.7305 18.2763 12.1234 17.2311 11.936C16.1859 11.7486 15.1095 11.9972 14.2522 12.6239C13.3951 13.2507 12.8317 14.2009 12.6933 15.2538C12.6609 15.5306 12.6549 15.8097 12.6754 16.0876C12.4274 16.2431 11.713 16.5718 10.3472 16.3178C10.2528 16.3023 10.1564 16.333 10.0885 16.4004C10.0205 16.4679 9.98885 16.5638 10.0035 16.6584C10.0035 16.7302 10.3203 18.3499 13.5899 18.3499H13.6407C13.6976 18.4157 13.7543 18.4784 13.8171 18.5412H13.817C13.9987 18.6877 14.1077 18.9059 14.1158 19.139C14.0801 19.391 13.9388 19.616 13.7273 19.7576C13.2755 20.1625 12.962 20.6987 12.8307 21.2908C12.6294 22.0827 12.6826 22.9177 12.9831 23.6774C13.2836 24.4373 13.8159 25.0829 14.5044 25.5228C16.4291 26.769 19.1728 26.9125 20.3173 26.9125H20.8433H20.8434C22.2544 26.8733 23.6489 26.6006 24.9708 26.1056C26.2909 25.576 27.426 24.6697 28.2344 23.4994C28.5481 22.9992 28.7717 22.4481 28.8949 21.8706C29.1225 20.7976 29.1909 19.6969 29.0982 18.6041L29.0981 18.6041ZM10.8405 16.9843C11.4941 17.0674 12.158 16.9724 12.7621 16.7093C12.8541 17.0831 13.0044 17.4402 13.2075 17.7673C11.8178 17.7016 11.1513 17.301 10.8405 16.9843V16.9843ZM28.33 21.7391C28.2223 22.2504 28.026 22.739 27.7501 23.1827C27.0068 24.2462 25.9676 25.0682 24.7615 25.5467C23.4985 26.0167 22.1665 26.2753 20.8195 26.3117C20.7836 26.3117 17.1047 26.503 14.8423 25.0266C14.2651 24.6475 13.8186 24.1 13.5635 23.4584C13.3086 22.8168 13.2572 22.1122 13.4166 21.4402C13.5196 20.9635 13.7706 20.5315 14.1339 20.206C14.472 19.9615 14.6896 19.5841 14.7316 19.1689C14.7288 18.7774 14.5593 18.4056 14.2653 18.1469C14.1786 18.0601 14.101 17.9705 14.0263 17.8808V17.8629C13.6427 17.4319 13.3879 16.9016 13.2911 16.3327C13.2464 15.9974 13.2464 15.6577 13.2911 15.3226C13.3864 14.5283 13.768 13.7961 14.3642 13.263C14.9606 12.7298 15.7309 12.4326 16.5309 12.4266H16.6624H16.6623C17.7322 12.4674 18.7159 13.0244 19.3012 13.9209C19.9168 14.8235 20.0583 15.968 19.6808 16.9932C19.5589 17.316 19.41 17.628 19.2356 17.9257C19.1821 18.0181 19.1821 18.1321 19.2356 18.2245C19.2894 18.3156 19.39 18.3689 19.4955 18.3619C19.5283 18.3619 22.9415 18.2335 24.875 19.1958C26.462 19.9878 27.801 18.6878 28.4614 17.8449C28.4913 18.1019 28.5122 18.3679 28.5301 18.634H28.5302C28.617 19.6732 28.5495 20.7196 28.33 21.7391L28.33 21.7391Z" fill="#FFCD1A"/>
<path d="M25.0845 20.6909C25.0696 20.6909 23.4497 21.6294 22.072 20.6909C21.2173 20.1141 20.4521 19.8541 19.7349 19.89C19.046 19.9072 18.4047 20.2455 18.0014 20.8044C17.6297 21.3509 17.5452 22.0435 17.7744 22.6634C18.1539 23.814 19.3972 24.4894 20.3923 24.633C20.6321 24.6661 20.8737 24.6831 21.1156 24.6837C22.4695 24.6837 24.5736 24.1428 25.5029 21.0345C25.5295 20.9242 25.4913 20.8084 25.4043 20.7356C25.3158 20.6594 25.1907 20.6419 25.0845 20.6908L25.0845 20.6909ZM20.4789 24.0471C19.6301 23.9246 18.617 23.3448 18.3301 22.4692C18.1655 22.0283 18.2211 21.5355 18.4795 21.1421C18.7805 20.7321 19.2561 20.4866 19.7646 20.4788H19.8663C20.5483 20.5176 21.2035 20.7579 21.7491 21.1691C22.641 21.7384 23.7507 21.8494 24.7377 21.4679C23.6947 24.0741 21.6595 24.2146 20.4789 24.0471H20.4789Z" fill="#FFCD1A"/>
<path d="M15.5021 14.043C15.2243 14.0422 14.9576 14.152 14.7608 14.348C14.5641 14.544 14.4534 14.8103 14.4531 15.0881C14.4529 15.3658 14.5631 15.6323 14.7595 15.8287C14.9559 16.0251 15.2223 16.1353 15.5001 16.135C15.7779 16.1348 16.0442 16.024 16.2402 15.8274C16.4362 15.6306 16.546 15.3639 16.5452 15.0861C16.5444 14.8096 16.4342 14.5448 16.2387 14.3495C16.0434 14.154 15.7785 14.0438 15.5021 14.043L15.5021 14.043ZM15.5021 15.5523C15.3146 15.5474 15.1484 15.431 15.0799 15.2563C15.0115 15.0818 15.0543 14.8833 15.1886 14.7524C15.3228 14.6215 15.5224 14.5837 15.6952 14.6566C15.8679 14.7294 15.9803 14.8986 15.9803 15.0861C15.9803 15.2119 15.9296 15.3322 15.8395 15.42C15.7495 15.5078 15.6278 15.5556 15.5021 15.5522L15.5021 15.5523Z" fill="#FFCD1A"/>
</svg>
