<svg width="48" height="48" viewBox="0 0 48 48" fill="none" xmlns="http://www.w3.org/2000/svg">
<path d="M30.665 27.2807V29.2807C30.6657 29.4664 30.6277 29.6502 30.5533 29.8203C30.479 29.9904 30.3699 30.1431 30.233 30.2686C30.0962 30.3941 29.9347 30.4897 29.7588 30.5492C29.5829 30.6087 29.3966 30.6308 29.2117 30.614C27.1602 30.3911 25.1897 29.6901 23.4583 28.5674C21.8475 27.5438 20.4819 26.1782 19.4583 24.5674C18.3316 22.8282 17.6305 20.848 17.4117 18.7874C17.395 18.603 17.4169 18.4172 17.476 18.2418C17.5351 18.0664 17.63 17.9052 17.7548 17.7685C17.8796 17.6318 18.0315 17.5225 18.2009 17.4477C18.3702 17.3729 18.5532 17.3342 18.7383 17.334H20.7383C21.0619 17.3309 21.3755 17.4454 21.6208 17.6564C21.8661 17.8674 22.0264 18.1603 22.0717 18.4807C22.1561 19.1208 22.3126 19.7492 22.5383 20.354C22.628 20.5927 22.6474 20.852 22.5943 21.1013C22.5411 21.3506 22.4176 21.5795 22.2383 21.7607L21.3917 22.6074C22.3407 24.2764 23.7226 25.6583 25.3917 26.6074L26.2383 25.7607C26.4196 25.5815 26.6484 25.4579 26.8977 25.4048C27.1471 25.3516 27.4064 25.371 27.645 25.4607C28.2498 25.6864 28.8783 25.843 29.5183 25.9274C29.8422 25.9731 30.1379 26.1362 30.3494 26.3857C30.5608 26.6352 30.6731 26.9538 30.665 27.2807Z" stroke="white" stroke-linecap="round" stroke-linejoin="round"/>
</svg>
