<svg width="64" height="64" viewBox="0 0 64 64" fill="none" xmlns="http://www.w3.org/2000/svg">
<path d="M26.5188 22.8892V21.7334C26.6443 21.7334 26.7648 21.6842 26.8535 21.5967C26.9423 21.5092 26.9921 21.3904 26.9921 21.2667V19.4C26.9917 19.0288 26.8419 18.6729 26.5757 18.4106C26.3097 18.1481 25.9488 18.0004 25.5723 18H21.7861C21.4096 18.0004 21.0488 18.1481 20.7828 18.4106C20.5165 18.6729 20.3667 19.0288 20.3663 19.4V21.2667C20.3663 21.3904 20.4162 21.5092 20.5049 21.5967C20.5937 21.6842 20.7141 21.7334 20.8396 21.7334H25.5723V23.1334C25.5723 23.2894 25.6513 23.435 25.7829 23.5217C26.3479 23.8923 26.8429 24.3571 27.2465 24.895C26.1128 25.104 24.9469 25.0705 23.8275 24.7963C22.6805 24.5155 21.4887 24.4603 20.32 24.6342C20.682 24.2057 21.1048 23.8309 21.5755 23.5217C21.7071 23.4351 21.7861 23.2894 21.7861 23.1334V22.6667H20.8396V22.8892C20.1149 23.4034 19.5 24.0536 19.0304 24.8026C18.9552 24.9215 18.8812 25.0478 18.8102 25.1784V25.1782C18.2791 26.1591 18.0008 27.2534 18 28.3653V28.8136V28.8134C17.9989 29.1851 18.1487 29.5415 18.4158 29.8034L18.7505 30.1334L18.4158 30.4634C18.1487 30.7253 17.999 31.0818 18 31.4534V32.0803V32.0801C17.9989 32.4517 18.1487 32.8082 18.4158 33.07L18.7505 33.4001L18.4158 33.7301C18.1487 33.9919 17.999 34.3484 18 34.72V35.3469V35.3467C17.9989 35.7184 18.1487 36.0748 18.4158 36.3367L18.7505 36.6667L18.4158 36.9967C18.1487 37.2586 17.999 37.615 18 37.9867V38.6136V38.6133C17.9989 38.985 18.1487 39.3415 18.4158 39.6033L18.7505 39.9333L18.4158 40.2633C18.1487 40.5252 17.999 40.8817 18 41.2533V44.1333C18.0006 44.6283 18.2003 45.1027 18.5551 45.4527C18.91 45.8025 19.3911 45.9994 19.8931 46H27.4654C27.9674 45.9994 28.4485 45.8025 28.8034 45.4527C29.1582 45.1027 29.3578 44.6283 29.3585 44.1333V41.2533C29.3595 40.8816 29.2097 40.5252 28.9427 40.2633L28.608 39.9333L28.9427 39.6033C29.2097 39.3414 29.3595 38.985 29.3585 38.6133V37.9867C29.3595 37.615 29.2097 37.2586 28.9427 36.9967L28.608 36.6667L28.9427 36.3367C29.2097 36.0748 29.3595 35.7183 29.3585 35.3467V34.72C29.3595 34.3484 29.2097 33.9919 28.9427 33.7301L28.608 33.4001L28.9427 33.0701C29.2097 32.8082 29.3595 32.4517 29.3585 32.0801V31.4534C29.3595 31.0817 29.2097 30.7253 28.9427 30.4634L28.608 30.1334L28.9427 29.8034C29.2097 29.5415 29.3595 29.1851 29.3585 28.8134V28.3651V28.3653C29.3587 26.1961 28.3023 24.1591 26.5189 22.889L26.5188 22.8892ZM21.3129 19.4C21.3131 19.1423 21.5248 18.9336 21.7861 18.9333H25.5723C25.8337 18.9336 26.0454 19.1423 26.0456 19.4V20.8H21.3129V19.4ZM28.4119 28.8134C28.4124 28.9374 28.3623 29.0561 28.2733 29.1434L27.7426 29.6667H20.8399V30.6001H27.7426L28.2733 31.1234C28.3623 31.2107 28.4124 31.3295 28.4119 31.4534V32.0803V32.0801C28.4124 32.2041 28.3623 32.3228 28.2733 32.4101L27.7426 32.9334H20.8399V33.8668H27.7426L28.2733 34.3901C28.3623 34.4774 28.4124 34.5962 28.4119 34.7201V35.347V35.3468C28.4124 35.4707 28.3623 35.5895 28.2733 35.6768L27.7426 36.2001H20.8399V37.1335H27.7426L28.2733 37.6568C28.3623 37.7441 28.4124 37.8628 28.4119 37.9868V38.6137V38.6135C28.4124 38.7374 28.3623 38.8562 28.2733 38.9435L27.7426 39.4668H20.8399V40.4002H27.7426L28.2733 40.9235C28.3623 41.0108 28.4124 41.1295 28.4119 41.2535V44.1335C28.4117 44.381 28.3118 44.6181 28.1343 44.7931C27.9568 44.9681 27.7164 45.0666 27.4654 45.0668H19.8931C19.6421 45.0666 19.4016 44.9681 19.2242 44.7931C19.0467 44.6181 18.9468 44.381 18.9466 44.1335V41.2535C18.9461 41.1295 18.9962 41.0108 19.0852 40.9235L19.7545 40.2635C19.8432 40.176 19.8931 40.0572 19.8931 39.9335C19.8931 39.8097 19.8432 39.691 19.7545 39.6035L19.0852 38.9435C18.9962 38.8562 18.9461 38.7374 18.9466 38.6135V37.9868C18.9461 37.8629 18.9962 37.7441 19.0852 37.6568L19.7545 36.9968C19.8432 36.9093 19.8931 36.7906 19.8931 36.6668C19.8931 36.5431 19.8432 36.4243 19.7545 36.3368L19.0852 35.6768C18.9962 35.5895 18.9461 35.4708 18.9466 35.3468V34.7201C18.9461 34.5962 18.9962 34.4774 19.0852 34.3901L19.7545 33.7301C19.8432 33.6426 19.8931 33.5239 19.8931 33.4001C19.8931 33.2764 19.8432 33.1576 19.7545 33.0701L19.0852 32.4101C18.9962 32.3228 18.9461 32.2041 18.9466 32.0801V31.4534C18.9461 31.3295 18.9962 31.2107 19.0852 31.1234L19.7545 30.4634C19.8432 30.3759 19.8931 30.2572 19.8931 30.1334C19.8931 30.0097 19.8432 29.8909 19.7545 29.8034L19.0852 29.1434C18.9962 29.0561 18.9461 28.9374 18.9466 28.8134V28.3651V28.3653C18.9474 27.449 19.1669 26.5457 19.5876 25.7286L19.9254 25.6548H19.9252C21.1369 25.3905 22.3941 25.4067 23.5981 25.7019C24.3085 25.8763 25.0378 25.9644 25.7699 25.964C26.3574 25.9642 26.9435 25.9073 27.5199 25.7944L27.7785 25.7434C28.1951 26.5563 28.4119 27.4544 28.4119 28.3653L28.4119 28.8134Z" fill="white"/>
<path d="M20.1113 41.2461H20.9038V44.1518H20.1113V41.2461Z" fill="white"/>
<path d="M19.8477 28.4752V28.5634H20.9167V28.4752C20.9162 27.7155 21.0913 26.9629 21.4326 26.2593L20.4421 25.9219C20.0491 26.7327 19.8472 27.5999 19.8477 28.4752L19.8477 28.4752Z" fill="white"/>
<path d="M42.5189 22.8892V21.7334C42.6444 21.7334 42.7648 21.6842 42.8535 21.5967C42.9423 21.5092 42.9921 21.3904 42.9921 21.2667V19.4C42.9917 19.0288 42.8419 18.6729 42.5757 18.4106C42.3097 18.1481 41.9488 18.0004 41.5723 18H37.7861C37.4096 18.0004 37.0488 18.1481 36.7828 18.4106C36.5165 18.6729 36.3667 19.0288 36.3663 19.4V21.2667C36.3663 21.3904 36.4162 21.5092 36.5049 21.5967C36.5937 21.6842 36.7141 21.7334 36.8396 21.7334H41.5723V23.1334C41.5723 23.2894 41.6513 23.435 41.7829 23.5217C42.3479 23.8923 42.8429 24.3571 43.2465 24.895C42.1128 25.104 40.9469 25.0705 39.8275 24.7963C38.6805 24.5155 37.4887 24.4603 36.32 24.6342C36.682 24.2057 37.1048 23.8309 37.5755 23.5217C37.7071 23.4351 37.7861 23.2894 37.7861 23.1334V22.6667H36.8396V22.8892C36.1149 23.4034 35.5 24.0536 35.0304 24.8026C34.9552 24.9215 34.8812 25.0478 34.8102 25.1784V25.1782C34.2791 26.1591 34.0008 27.2534 34 28.3653V28.8136V28.8134C33.9989 29.1851 34.1487 29.5415 34.4158 29.8034L34.7505 30.1334L34.4158 30.4634C34.1487 30.7253 33.999 31.0818 34 31.4534V32.0803V32.0801C33.9989 32.4517 34.1487 32.8082 34.4158 33.07L34.7505 33.4001L34.4158 33.7301C34.1487 33.9919 33.999 34.3484 34 34.72V35.3469V35.3467C33.9989 35.7184 34.1487 36.0748 34.4158 36.3367L34.7505 36.6667L34.4158 36.9967C34.1487 37.2586 33.999 37.615 34 37.9867V38.6136V38.6133C33.9989 38.985 34.1487 39.3415 34.4158 39.6033L34.7505 39.9333L34.4158 40.2633C34.1487 40.5252 33.999 40.8817 34 41.2533V44.1333C34.0006 44.6283 34.2003 45.1027 34.5551 45.4527C34.91 45.8025 35.3911 45.9994 35.8931 46H43.4654C43.9674 45.9994 44.4485 45.8025 44.8034 45.4527C45.1582 45.1027 45.3578 44.6283 45.3585 44.1333V41.2533C45.3595 40.8816 45.2097 40.5252 44.9427 40.2633L44.608 39.9333L44.9427 39.6033C45.2097 39.3414 45.3595 38.985 45.3585 38.6133V37.9867C45.3595 37.615 45.2097 37.2586 44.9427 36.9967L44.608 36.6667L44.9427 36.3367C45.2097 36.0748 45.3595 35.7183 45.3585 35.3467V34.72C45.3595 34.3484 45.2097 33.9919 44.9427 33.7301L44.608 33.4001L44.9427 33.0701C45.2097 32.8082 45.3595 32.4517 45.3585 32.0801V31.4534C45.3595 31.0817 45.2097 30.7253 44.9427 30.4634L44.608 30.1334L44.9427 29.8034C45.2097 29.5415 45.3595 29.1851 45.3585 28.8134V28.3651V28.3653C45.3587 26.1961 44.3023 24.1591 42.5189 22.889L42.5189 22.8892ZM37.3129 19.4C37.3131 19.1423 37.5248 18.9336 37.7861 18.9333H41.5723C41.8337 18.9336 42.0454 19.1423 42.0456 19.4V20.8H37.3129V19.4ZM44.4119 28.8134C44.4124 28.9374 44.3623 29.0561 44.2733 29.1434L43.7426 29.6667H36.8399V30.6001H43.7426L44.2733 31.1234C44.3623 31.2107 44.4124 31.3295 44.4119 31.4534V32.0803V32.0801C44.4124 32.2041 44.3623 32.3228 44.2733 32.4101L43.7426 32.9334H36.8399V33.8668H43.7426L44.2733 34.3901C44.3623 34.4774 44.4124 34.5962 44.4119 34.7201V35.347V35.3468C44.4124 35.4707 44.3623 35.5895 44.2733 35.6768L43.7426 36.2001H36.8399V37.1335H43.7426L44.2733 37.6568C44.3623 37.7441 44.4124 37.8628 44.4119 37.9868V38.6137V38.6135C44.4124 38.7374 44.3623 38.8562 44.2733 38.9435L43.7426 39.4668H36.8399V40.4002H43.7426L44.2733 40.9235C44.3623 41.0108 44.4124 41.1295 44.4119 41.2535V44.1335C44.4117 44.381 44.3118 44.6181 44.1343 44.7931C43.9568 44.9681 43.7164 45.0666 43.4654 45.0668H35.8931C35.6421 45.0666 35.4016 44.9681 35.2242 44.7931C35.0467 44.6181 34.9468 44.381 34.9466 44.1335V41.2535C34.9461 41.1295 34.9962 41.0108 35.0852 40.9235L35.7545 40.2635C35.8432 40.176 35.8931 40.0572 35.8931 39.9335C35.8931 39.8097 35.8432 39.691 35.7545 39.6035L35.0852 38.9435C34.9962 38.8562 34.9461 38.7374 34.9466 38.6135V37.9868C34.9461 37.8629 34.9962 37.7441 35.0852 37.6568L35.7545 36.9968C35.8432 36.9093 35.8931 36.7906 35.8931 36.6668C35.8931 36.5431 35.8432 36.4243 35.7545 36.3368L35.0852 35.6768C34.9962 35.5895 34.9461 35.4708 34.9466 35.3468V34.7201C34.9461 34.5962 34.9962 34.4774 35.0852 34.3901L35.7545 33.7301C35.8432 33.6426 35.8931 33.5239 35.8931 33.4001C35.8931 33.2764 35.8432 33.1576 35.7545 33.0701L35.0852 32.4101C34.9962 32.3228 34.9461 32.2041 34.9466 32.0801V31.4534C34.9461 31.3295 34.9962 31.2107 35.0852 31.1234L35.7545 30.4634C35.8432 30.3759 35.8931 30.2572 35.8931 30.1334C35.8931 30.0097 35.8432 29.8909 35.7545 29.8034L35.0852 29.1434C34.9962 29.0561 34.9461 28.9374 34.9466 28.8134V28.3651V28.3653C34.9474 27.449 35.1669 26.5457 35.5876 25.7286L35.9254 25.6548H35.9252C37.1369 25.3905 38.3941 25.4067 39.5981 25.7019C40.3085 25.8763 41.0378 25.9644 41.7699 25.964C42.3574 25.9642 42.9435 25.9073 43.5199 25.7944L43.7785 25.7434C44.1951 26.5563 44.4119 27.4544 44.4119 28.3653L44.4119 28.8134Z" fill="white"/>
<path d="M36.1172 41.2422H36.9096V44.1478H36.1172V41.2422Z" fill="white"/>
<path d="M35.8516 28.4791V28.5673H36.9206V28.4791C36.9201 27.7194 37.0952 26.9669 37.4365 26.2632L36.446 25.9258C36.053 26.7366 35.8511 27.6038 35.8516 28.4791L35.8516 28.4791Z" fill="white"/>
</svg>
