<svg width="48" height="48" viewBox="0 0 48 48" fill="none" xmlns="http://www.w3.org/2000/svg">
<path d="M10.2684 30.6323C11.0614 30.6323 11.432 30.9537 11.9012 31.3604C12.4318 31.8202 13.0329 32.3416 14.2123 32.3416C15.3916 32.3416 15.9927 31.8202 16.5234 31.3599C16.9925 30.9532 17.3638 30.632 18.1564 30.632C18.9492 30.632 19.32 30.9534 19.7893 31.3601C20.3199 31.82 20.9211 32.3413 22.1009 32.3413C23.2808 32.3413 23.8821 31.82 24.4134 31.3594C24.883 30.9527 25.2538 30.632 26.0468 30.632C26.8399 30.632 27.2112 30.9534 27.681 31.3601C28.2116 31.82 28.8127 32.3413 29.9928 32.3413C31.1733 32.3413 31.7751 31.82 32.3067 31.3596C32.7762 30.953 33.1473 30.6318 33.9408 30.6318C34.7345 30.6318 35.1058 30.9532 35.5758 31.3599C36.1069 31.8197 36.7087 32.3411 37.8888 32.3411C38.1743 32.3411 38.4067 32.1087 38.4067 31.8232C38.4067 31.5377 38.1743 31.3053 37.8888 31.3053C37.0953 31.3053 36.7242 30.9839 36.2544 30.5772C35.7231 30.1174 35.1213 29.596 33.9408 29.596C32.7607 29.596 32.1589 30.1174 31.6276 30.5777C31.2131 30.9365 30.8743 31.2281 30.2554 31.2916C30.2813 31.2299 30.2958 31.1622 30.2958 31.091V28.7512C30.2961 28.745 30.2961 28.7392 30.2961 28.7329C30.2961 28.7267 30.2961 28.7209 30.2958 28.7147V25.2275C30.2961 25.2212 30.2961 25.2154 30.2961 25.2092C30.2961 25.203 30.2961 25.1972 30.2958 25.1909L30.2963 21.7042C30.2965 21.6979 30.2965 21.6922 30.2965 21.6859C30.2965 21.6797 30.2965 21.6739 30.2963 21.6677V18.1804C30.2965 18.1742 30.2965 18.1684 30.2965 18.1622C30.2965 18.1559 30.2965 18.1501 30.2963 18.1439V15.8298C30.2963 15.317 30.2963 14.25 28.8883 14.25C27.4803 14.25 27.4803 15.3172 27.4803 15.8298C27.4803 16.1153 27.7126 16.3477 27.9982 16.3477C28.2837 16.3477 28.5161 16.1153 28.5161 15.8298C28.5161 15.2858 28.5161 15.2858 28.8883 15.2858C29.2605 15.2858 29.2605 15.2858 29.2605 15.8298V17.6445H22.0574V15.8298C22.0574 15.317 22.0574 14.25 20.6494 14.25C19.2414 14.25 19.2414 15.3172 19.2414 15.8298C19.2414 16.1153 19.4737 16.3477 19.7593 16.3477C20.0448 16.3477 20.2771 16.1153 20.2771 15.8298C20.2771 15.2858 20.2771 15.2858 20.6494 15.2858C21.0216 15.2858 21.0216 15.2858 21.0216 15.8298V31.0102C20.8306 30.8893 20.657 30.7414 20.4679 30.5777C19.9373 30.1178 19.3362 29.5964 18.1563 29.5964C16.9769 29.5964 16.3754 30.1178 15.8445 30.5781C15.3754 30.9848 15.0046 31.306 14.2117 31.306C13.4189 31.306 13.0486 30.9846 12.579 30.5779C12.0484 30.118 11.4473 29.5967 10.2679 29.5967C9.98236 29.5967 9.75 29.829 9.75 30.1146C9.74977 30.3999 9.98213 30.6322 10.2681 30.6322L10.2684 30.6323ZM22.0574 18.6805H29.2612V21.168H22.0574V18.6805ZM22.0574 22.2038H29.2612V24.692L22.0574 24.6922V22.2038ZM22.0574 25.728H29.2612V28.2155H22.0574V25.728ZM22.0574 31.0916V29.2515H29.2612V31.0916C29.2612 31.1252 29.2649 31.1573 29.2709 31.1887C28.9183 31.06 28.6586 30.8366 28.3597 30.5777C27.8291 30.1178 27.2272 29.5965 26.0474 29.5965C24.8674 29.5965 24.2656 30.1178 23.735 30.5777C23.2659 30.9848 22.8952 31.3058 22.1015 31.3058C22.0698 31.3058 22.0428 31.3021 22.0125 31.3009C22.0407 31.2373 22.0576 31.1666 22.0576 31.0917L22.0574 31.0916Z" fill="white"/>
<path d="M10.2681 32.7902C11.0611 32.7902 11.4318 33.1115 11.9009 33.5182C12.4315 33.9781 13.0326 34.4994 14.212 34.4994C15.3914 34.4994 15.9925 33.9781 16.5231 33.5178C16.9922 33.1111 17.3635 32.7899 18.1561 32.7899C18.9489 32.7899 19.3197 33.1113 19.7891 33.518C20.3197 33.9779 20.9208 34.4992 22.1006 34.4992C23.2805 34.4992 23.8818 33.9778 24.4131 33.5173C24.8827 33.1106 25.2535 32.7899 26.0466 32.7899C26.8396 32.7899 27.2109 33.1113 27.6807 33.518C28.2113 33.9779 28.8124 34.4992 29.9925 34.4992C31.173 34.4992 31.7748 33.9778 32.3064 33.5175C32.7759 33.1108 33.147 32.7897 33.9405 32.7897C34.7342 32.7897 35.1055 33.1111 35.5756 33.5178C36.1066 33.9776 36.7085 34.499 37.8885 34.499C38.174 34.499 38.4064 34.2666 38.4064 33.9811C38.4064 33.6955 38.174 33.4632 37.8885 33.4632C37.095 33.4632 36.7239 33.1418 36.2541 32.7351C35.7228 32.2753 35.121 31.7539 33.9405 31.7539C32.7604 31.7539 32.1586 32.2753 31.6273 32.7356C31.1575 33.1423 30.7862 33.4634 29.9925 33.4634C29.1995 33.4634 28.8286 33.1421 28.359 32.7354C27.8284 32.2755 27.2266 31.7541 26.0468 31.7541C24.8667 31.7541 24.265 32.2755 23.7343 32.7354C23.2652 33.1425 22.8946 33.4634 22.1009 33.4634C21.3081 33.4634 20.9372 33.1421 20.4679 32.7354C19.9373 32.2755 19.3362 31.7541 18.1563 31.7541C16.9769 31.7541 16.3754 32.2755 15.8445 32.7358C15.3754 33.1425 15.0046 33.4637 14.2117 33.4637C13.4189 33.4637 13.0486 33.1423 12.579 32.7356C12.0484 32.2757 11.4473 31.7544 10.2679 31.7544C9.98236 31.7544 9.75 31.9867 9.75 32.2723C9.75023 32.5578 9.98213 32.7902 10.2681 32.7902H10.2681Z" fill="white"/>
</svg>
