<svg width="40" height="40" viewBox="0 0 40 40" fill="none" xmlns="http://www.w3.org/2000/svg">
<g clip-path="url(#clip0_4913_9883)">
<path d="M28.9286 25.625C29.1429 25.625 29.2857 25.4844 29.2857 25.2734V24.2188H29.6429C29.8571 24.2188 30 24.0781 30 23.8672V20.3516C30 19.5078 29.3929 18.8047 28.5714 18.6289V17.1523C28.5714 15.6406 27.2857 14.375 25.75 14.375H14.25C12.7143 14.375 11.4286 15.6406 11.4286 17.1523V18.6289C10.6071 18.8047 10 19.5078 10 20.3516V23.8672C10 24.0781 10.1429 24.2188 10.3571 24.2188H10.7143V25.2734C10.7143 25.4844 10.8571 25.625 11.0714 25.625C11.2857 25.625 11.4286 25.4844 11.4286 25.2734V24.2188H28.5714V25.2734C28.5714 25.4844 28.7143 25.625 28.9286 25.625ZM12.1429 17.1523C12.1429 16.0273 13.1071 15.0781 14.25 15.0781H25.7143C26.8929 15.0781 27.8571 16.0273 27.8571 17.1523V18.5938H26.3929C26.2857 17.7852 25.5714 17.1875 24.75 17.1875H23.1071C22.2857 17.1875 21.5714 17.7852 21.4643 18.5938H18.5714C18.4643 17.7852 17.75 17.1875 16.9286 17.1875H15.2857C14.4643 17.1875 13.75 17.7852 13.6429 18.5938H12.1429V17.1523ZM25.6786 18.5938H22.1786C22.2857 18.1719 22.6786 17.8906 23.1071 17.8906H24.75C25.1786 17.8906 25.5714 18.1719 25.6786 18.5938ZM17.8214 18.5938H14.3214C14.4286 18.1719 14.8214 17.8906 15.25 17.8906H16.8929C17.3214 17.8906 17.7143 18.1719 17.8214 18.5938ZM10.7143 20.3516C10.7143 19.7539 11.1786 19.2969 11.7857 19.2969H28.2143C28.8214 19.2969 29.2857 19.7539 29.2857 20.3516V23.5156H10.7143V20.3516Z" fill="white"/>
</g>
<defs>
<clipPath id="clip0_4913_9883">
<rect width="20" height="11.25" fill="white" transform="translate(10 14.375)"/>
</clipPath>
</defs>
</svg>
