<svg width="48" height="48" viewBox="0 0 48 48" fill="none" xmlns="http://www.w3.org/2000/svg">
<path d="M26.418 16.1833C26.2651 16.0951 26.077 16.0951 25.9243 16.1833L19.8753 19.4276H16.5866C15.7098 19.4276 14.999 20.1384 14.999 21.0152V27.0148C14.999 27.8916 15.7098 28.6023 16.5866 28.6023H19.8753L25.9318 31.8565C26.0847 31.9446 26.2728 31.9446 26.4255 31.8565C26.5774 31.7688 26.6713 31.6071 26.6725 31.4318L26.6723 16.6083C26.6697 16.4314 26.5728 16.2695 26.4181 16.1836L26.418 16.1833ZM19.5071 27.6146H16.5863C16.2549 27.6146 15.9864 27.346 15.9864 27.0148V21.0152C15.9864 20.6839 16.2551 20.4154 16.5863 20.4154H19.5071V27.6146ZM25.6699 30.5971L20.485 27.8146V20.215L25.6699 17.4324V30.5971Z" fill="white"/>
<path d="M32.5059 23.5275H30.639V21.6349C30.639 21.3619 30.4177 21.1406 30.1447 21.1406C29.8717 21.1406 29.6504 21.3619 29.6504 21.6349V23.5275H27.7833C27.5104 23.5275 27.2891 23.7488 27.2891 24.0217C27.2891 24.2947 27.5104 24.516 27.7833 24.516H29.6504V26.4086C29.6504 26.6815 29.8717 26.9028 30.1447 26.9028C30.4177 26.9028 30.639 26.6815 30.639 26.4086V24.516H32.5059C32.7788 24.516 33.0001 24.2947 33.0001 24.0217C33.0001 23.7488 32.779 23.5275 32.5059 23.5275Z" fill="white"/>
</svg>
