<svg width="40" height="40" viewBox="0 0 40 40" fill="none" xmlns="http://www.w3.org/2000/svg">
<path d="M27.0766 10C26.8428 10 26.653 10.1898 26.653 10.4236V11.9365H20.2233C19.517 11.9371 18.8349 12.1943 18.3039 12.6601C17.7729 13.1256 17.4289 13.7683 17.3359 14.4684C16.179 14.5763 15.104 15.1114 14.3203 15.969C13.5367 16.8268 13.1007 17.9457 13.0977 19.1076V19.9866C12.917 20.0706 12.7642 20.2053 12.6583 20.3741C12.5522 20.5429 12.4973 20.7389 12.5001 20.9381C12.5016 21.2133 12.611 21.4767 12.8048 21.6721C12.9987 21.8673 13.2613 21.9786 13.5364 21.982H22.0083C22.3262 21.9749 22.6234 21.8234 22.816 21.5705C23.0087 21.3177 23.0755 20.9907 22.9979 20.6825C22.9201 20.3741 22.7062 20.118 22.4168 19.9866V19.1076C22.417 17.9472 21.9841 16.8283 21.2028 15.9703C20.4215 15.1123 19.3482 14.5767 18.1929 14.4684C18.2823 13.9951 18.5339 13.5678 18.9045 13.2603C19.2752 12.9529 19.7416 12.7844 20.2231 12.7837H26.6528V14.5387C26.6528 14.7725 26.8426 14.9623 27.0764 14.9623C27.3102 14.9623 27.5 14.7725 27.5 14.5387V10.4236C27.5 10.3113 27.4555 10.2036 27.3759 10.1241C27.2964 10.0446 27.1888 10 27.0764 10L27.0766 10ZM22.0085 21.1348H13.5366C13.4363 21.1348 13.3551 21.0535 13.3551 20.9532C13.3551 20.853 13.4363 20.7717 13.5366 20.7717H22.0085C22.1087 20.7717 22.19 20.853 22.19 20.9532C22.19 21.0535 22.1087 21.1348 22.0085 21.1348ZM21.5697 19.1075V19.9245H13.945V19.1075C13.945 17.7455 14.6716 16.4868 15.8512 15.8057C17.0308 15.1247 18.484 15.1247 19.6636 15.8057C20.8432 16.4868 21.5698 17.7455 21.5698 19.1075H21.5697Z" fill="#FFCD1A"/>
<path d="M14.8513 24.1322C15.0477 23.9438 15.3373 23.6591 15.3373 23.1305V22.8884C15.3373 22.6546 15.1476 22.4648 14.9137 22.4648C14.6799 22.4648 14.4901 22.6546 14.4901 22.8884V23.1305C14.4901 23.2896 14.438 23.3548 14.2651 23.5206C14.0685 23.7091 13.7754 23.9935 13.7754 24.5223C13.7754 25.051 14.0743 25.3356 14.271 25.524C14.4436 25.6896 14.5044 25.7551 14.5044 25.9141C14.5044 26.0732 14.4452 26.1387 14.2723 26.3043C14.0758 26.4927 13.7788 26.7774 13.7788 27.306C13.7788 27.8346 14.0685 28.1195 14.2649 28.3077C14.4378 28.4732 14.4901 28.5387 14.4901 28.6978V29.0609C14.4901 29.2947 14.6799 29.4845 14.9137 29.4845C15.1476 29.4845 15.3373 29.2947 15.3373 29.0609V28.6978C15.3373 28.1692 15.0479 27.8843 14.8513 27.6961C14.6784 27.5305 14.6224 27.465 14.6224 27.306C14.6224 27.1469 14.684 27.0814 14.8569 26.9159C15.0536 26.7274 15.3514 26.4428 15.3514 25.9141C15.3514 25.3855 15.0548 25.1009 14.8584 24.9124C14.6855 24.7469 14.6224 24.6814 14.6224 24.5223C14.6224 24.3633 14.6784 24.2978 14.8513 24.1322V24.1322Z" fill="#FFCD1A"/>
<path d="M17.8766 24.1322C18.0731 23.9438 18.3627 23.6591 18.3627 23.1305V22.8884C18.3627 22.6546 18.173 22.4648 17.9391 22.4648C17.7053 22.4648 17.5155 22.6546 17.5155 22.8884V23.1305C17.5155 23.2896 17.4634 23.3548 17.2905 23.5206C17.0938 23.7091 16.8008 23.9935 16.8008 24.5223C16.8008 25.051 17.0997 25.3356 17.2964 25.524C17.469 25.6896 17.5298 25.7551 17.5298 25.9141C17.5298 26.0732 17.4706 26.1387 17.2977 26.3043C17.1012 26.4927 16.8042 26.7774 16.8042 27.306C16.8042 27.8346 17.0938 28.1195 17.2903 28.3077C17.4632 28.4732 17.5155 28.5387 17.5155 28.6978V29.0609C17.5155 29.2947 17.7053 29.4845 17.9391 29.4845C18.173 29.4845 18.3627 29.2947 18.3627 29.0609V28.6978C18.3627 28.1692 18.0733 27.8843 17.8766 27.6961C17.7037 27.5305 17.6478 27.465 17.6478 27.306C17.6478 27.1469 17.7094 27.0814 17.8823 26.9159C18.0789 26.7274 18.3768 26.4428 18.3768 25.9141C18.3768 25.3855 18.0802 25.1009 17.8838 24.9124C17.7109 24.7469 17.6478 24.6814 17.6478 24.5223C17.6478 24.3633 17.7037 24.2978 17.8766 24.1322V24.1322Z" fill="#FFCD1A"/>
<path d="M20.902 24.1322C21.0985 23.9438 21.3881 23.6591 21.3881 23.1305V22.8884C21.3881 22.6546 21.1983 22.4648 20.9645 22.4648C20.7307 22.4648 20.5409 22.6546 20.5409 22.8884V23.1305C20.5409 23.2896 20.4888 23.3548 20.3159 23.5206C20.1192 23.7091 19.8262 23.9935 19.8262 24.5223C19.8262 25.051 20.1251 25.3356 20.3217 25.524C20.4944 25.6896 20.5552 25.7551 20.5552 25.9141C20.5552 26.0732 20.4959 26.1387 20.323 26.3043C20.1266 26.4927 19.8296 26.7774 19.8296 27.306C19.8296 27.8346 20.1192 28.1195 20.3157 28.3077C20.4886 28.4732 20.5409 28.5387 20.5409 28.6978V29.0609C20.5409 29.2947 20.7307 29.4845 20.9645 29.4845C21.1983 29.4845 21.3881 29.2947 21.3881 29.0609V28.6978C21.3881 28.1692 21.0987 27.8843 20.902 27.6961C20.7291 27.5305 20.6732 27.465 20.6732 27.306C20.6732 27.1469 20.7348 27.0814 20.9077 26.9159C21.1043 26.7274 21.4022 26.4428 21.4022 25.9141C21.4022 25.3855 21.1056 25.1009 20.9092 24.9124C20.7363 24.7469 20.6732 24.6814 20.6732 24.5223C20.6732 24.3633 20.7291 24.2978 20.902 24.1322V24.1322Z" fill="#FFCD1A"/>
</svg>
