<svg width="48" height="48" viewBox="0 0 48 48" fill="none" xmlns="http://www.w3.org/2000/svg">
<path d="M30.1629 24.9389C29.681 28.1646 27.0838 30.6231 24.0506 30.7951V34.8856C24.0506 35.0857 23.8988 35.25 23.7085 35.25C23.5182 35.25 23.3664 35.0883 23.3664 34.8856V30.7951C20.3331 30.6231 17.736 28.1621 17.2541 24.9389C17.2252 24.7413 17.3506 24.5539 17.5361 24.5231C17.7216 24.4897 17.8975 24.6258 17.9264 24.8234C18.3746 27.8182 20.8608 30.0788 23.706 30.0788C26.5537 30.0788 29.0376 27.8205 29.4855 24.8234C29.5144 24.6258 29.6903 24.4897 29.8759 24.5231C30.0638 24.554 30.1915 24.7413 30.1626 24.9389H30.1629ZM19.7527 23.8458V16.2138C19.7527 13.8913 21.5283 12 23.7087 12C25.889 12 27.6647 13.8888 27.6647 16.2138V23.8458C27.6647 26.1682 25.889 28.0596 23.7087 28.0596C21.5283 28.0594 19.7527 26.1682 19.7527 23.8458V23.8458ZM20.4346 23.8458C20.4346 25.7679 21.9017 27.3332 23.7087 27.3332C25.5156 27.3332 26.9828 25.7704 26.9828 23.8458V16.2138C26.9828 14.2917 25.5156 12.7263 23.7087 12.7263C21.9017 12.7263 20.4346 14.2891 20.4346 16.2138V23.8458Z" fill="white" stroke="white" stroke-width="0.5"/>
</svg>
