<svg width="70" height="70" viewBox="0 0 70 70" fill="none" xmlns="http://www.w3.org/2000/svg">
<path d="M19.04 0H0V19.04H19.04V0Z" fill="white"/>
<path d="M24.6402 39.1983C27.1144 39.1983 29.1202 37.1925 29.1202 34.7183C29.1202 32.244 27.1144 30.2383 24.6402 30.2383C22.1659 30.2383 20.1602 32.244 20.1602 34.7183C20.1602 37.1925 22.1659 39.1983 24.6402 39.1983Z" fill="white"/>
<path d="M4.48 49.2803C6.95424 49.2803 8.96 47.2745 8.96 44.8003C8.96 42.3261 6.95424 40.3203 4.48 40.3203C2.00576 40.3203 0 42.3261 0 44.8003C0 47.2745 2.00576 49.2803 4.48 49.2803Z" fill="white"/>
<path d="M14.5601 69.4405C17.0343 69.4405 19.0401 67.4347 19.0401 64.9605C19.0401 62.4862 17.0343 60.4805 14.5601 60.4805C12.0858 60.4805 10.0801 62.4862 10.0801 64.9605C10.0801 67.4347 12.0858 69.4405 14.5601 69.4405Z" fill="white"/>
<path d="M34.7202 59.3584C37.1945 59.3584 39.2002 57.3527 39.2002 54.8784C39.2002 52.4042 37.1945 50.3984 34.7202 50.3984C32.246 50.3984 30.2402 52.4042 30.2402 54.8784C30.2402 57.3527 32.246 59.3584 34.7202 59.3584Z" fill="white"/>
<path d="M4.48 29.1202C6.95424 29.1202 8.96 27.1144 8.96 24.6402C8.96 22.1659 6.95424 20.1602 4.48 20.1602C2.00576 20.1602 0 22.1659 0 24.6402C0 27.1144 2.00576 29.1202 4.48 29.1202Z" fill="white"/>
<path d="M24.6402 8.96C27.1144 8.96 29.1202 6.95424 29.1202 4.48C29.1202 2.00576 27.1144 0 24.6402 0C22.1659 0 20.1602 2.00576 20.1602 4.48C20.1602 6.95424 22.1659 8.96 24.6402 8.96Z" fill="white"/>
<path d="M64.9605 49.2803C67.4347 49.2803 69.4405 47.2745 69.4405 44.8003C69.4405 42.3261 67.4347 40.3203 64.9605 40.3203C62.4862 40.3203 60.4805 42.3261 60.4805 44.8003C60.4805 47.2745 62.4862 49.2803 64.9605 49.2803Z" fill="white"/>
<path d="M44.8003 69.4405C47.2745 69.4405 49.2803 67.4347 49.2803 64.9605C49.2803 62.4862 47.2745 60.4805 44.8003 60.4805C42.3261 60.4805 40.3203 62.4862 40.3203 64.9605C40.3203 67.4347 42.3261 69.4405 44.8003 69.4405Z" fill="white"/>
<path d="M59.3603 10.0781H40.3203V29.1181H59.3603V10.0781Z" fill="white"/>
<path d="M29.1201 40.3203H10.0801V59.3603H29.1201V40.3203Z" fill="white"/>
<path d="M69.9998 49.8398H49.8398V69.9998H69.9998V49.8398Z" fill="white"/>
<path d="M54.8804 8.96C57.3546 8.96 59.3604 6.95424 59.3604 4.48C59.3604 2.00576 57.3546 0 54.8804 0C52.4062 0 50.4004 2.00576 50.4004 4.48C50.4004 6.95424 52.4062 8.96 54.8804 8.96Z" fill="white"/>
<path d="M34.7202 19.0381C37.1945 19.0381 39.2002 17.0324 39.2002 14.5581C39.2002 12.0839 37.1945 10.0781 34.7202 10.0781C32.246 10.0781 30.2402 12.0839 30.2402 14.5581C30.2402 17.0324 32.246 19.0381 34.7202 19.0381Z" fill="white"/>
<path d="M44.8003 39.1983C47.2745 39.1983 49.2803 37.1925 49.2803 34.7183C49.2803 32.244 47.2745 30.2383 44.8003 30.2383C42.3261 30.2383 40.3203 32.244 40.3203 34.7183C40.3203 37.1925 42.3261 39.1983 44.8003 39.1983Z" fill="white"/>
<path d="M64.9605 29.1202C67.4347 29.1202 69.4405 27.1144 69.4405 24.6402C69.4405 22.1659 67.4347 20.1602 64.9605 20.1602C62.4862 20.1602 60.4805 22.1659 60.4805 24.6402C60.4805 27.1144 62.4862 29.1202 64.9605 29.1202Z" fill="white"/>
</svg>
