<svg width="48" height="48" viewBox="0 0 48 48" fill="none" xmlns="http://www.w3.org/2000/svg">
<path d="M34.8657 22.8119H33.9384V22.4181C33.9362 21.9789 33.7512 21.5582 33.424 21.2483C33.0965 20.9384 32.6534 20.7644 32.1916 20.7644C31.8626 20.7646 31.5409 20.8548 31.2644 21.0242C31.2092 20.4601 30.8544 19.9621 30.3239 19.7045C29.7933 19.4468 29.1611 19.4654 28.6483 19.7539C28.1357 20.0423 27.8138 20.5603 27.7955 21.1267V22.8119H20.2042V21.1029C20.1859 20.5368 19.8642 20.0187 19.3514 19.7303C18.8388 19.4418 18.2065 19.4232 17.6759 19.6809C17.1456 19.9384 16.7906 20.4364 16.7355 21.0006C16.4591 20.8312 16.1372 20.741 15.8082 20.7408C15.3477 20.7428 14.9068 20.9177 14.5814 21.2274C14.2558 21.5371 14.0719 21.9565 14.0697 22.3945V22.8118H13.1424C12.8438 22.8118 12.5568 22.9229 12.3433 23.1217C12.1297 23.3205 12.0065 23.5909 12 23.8749V24.8986C12.0065 25.1827 12.1297 25.453 12.3433 25.6518C12.5568 25.8506 12.8438 25.9617 13.1424 25.9617H14.0697V26.3555C14.0719 26.7947 14.2569 27.2153 14.5842 27.5253C14.9116 27.8351 15.3547 28.0092 15.8166 28.0092C16.1455 28.009 16.4672 27.9188 16.7437 27.7494C16.7989 28.3134 17.1537 28.8114 17.6843 29.0691C18.2148 29.3268 18.847 29.3082 19.3598 29.0197C19.8724 28.7313 20.1943 28.2132 20.2126 27.6469V25.9617H27.8124V27.6469C27.8307 28.2132 28.1524 28.7313 28.6652 29.0197C29.1778 29.3082 29.81 29.3268 30.3405 29.0691C30.871 28.8114 31.226 28.3134 31.2811 27.7494C31.5576 27.9188 31.8794 28.009 32.2084 28.0092C32.6632 28.0051 33.0982 27.8327 33.4214 27.5282C33.7444 27.2238 33.9299 26.8116 33.9386 26.379V25.9617H34.8576C35.1605 25.9617 35.4512 25.8473 35.6653 25.6434C35.8797 25.4396 36 25.1631 36 24.8751V23.8513C35.9872 23.5727 35.8625 23.3094 35.6513 23.1159C35.4403 22.9223 35.159 22.8135 34.8659 22.8118L34.8657 22.8119ZM13.1425 25.1743C12.9688 25.1743 12.828 25.0404 12.828 24.8751V23.8514C12.8526 23.7048 12.9865 23.5974 13.1425 23.5993H14.0698V25.1743H13.1425ZM15.8083 27.2217C15.5716 27.2198 15.3449 27.1312 15.1752 26.9743C15.0056 26.8173 14.9062 26.6041 14.8977 26.3791V22.3945C14.9269 22.1031 15.1072 21.8451 15.3785 21.7069C15.6496 21.5687 15.9753 21.5687 16.2465 21.7069C16.5176 21.8451 16.6981 22.1031 16.7273 22.3945V26.3792V26.3791C16.7273 26.6102 16.6303 26.8317 16.4577 26.9945C16.2851 27.1571 16.0513 27.2474 15.8083 27.2453L15.8083 27.2217ZM18.4658 28.5132C18.2236 28.5132 17.9911 28.4221 17.8189 28.26C17.6468 28.0978 17.5491 27.8774 17.5468 27.6469V21.1028C17.576 20.8115 17.7564 20.5535 18.0277 20.4153C18.2988 20.277 18.6245 20.277 18.8956 20.4153C19.1667 20.5535 19.3473 20.8115 19.3765 21.1028V27.6073C19.395 27.8478 19.3072 28.0847 19.1344 28.261C18.9614 28.4373 18.7192 28.5372 18.4658 28.5367L18.4658 28.5132ZM20.2043 25.1743V23.5993H27.8042V25.1743H20.2043ZM30.4614 27.6707C30.4322 27.962 30.2518 28.22 29.9805 28.3581C29.7095 28.4965 29.3837 28.4965 29.1126 28.3581C28.8415 28.22 28.6609 27.9619 28.6317 27.6707V21.1031C28.6609 20.8118 28.8415 20.5538 29.1126 20.4157C29.3837 20.2773 29.7094 20.2773 29.9805 20.4157C30.2518 20.5538 30.4322 20.8119 30.4614 21.1031V27.6707ZM33.1105 26.3791C33.0813 26.6705 32.901 26.9286 32.6297 27.0667C32.3586 27.2049 32.0329 27.2049 31.7617 27.0667C31.4906 26.9286 31.3101 26.6705 31.2809 26.3791V22.3946C31.3101 22.1031 31.4907 21.8451 31.7617 21.707C32.0328 21.5688 32.3586 21.5688 32.6297 21.707C32.901 21.8451 33.0814 22.1032 33.1105 22.3946V26.3791ZM35.1719 24.8987C35.1719 25.064 35.0311 25.1979 34.8574 25.1979H33.9384V23.5994H34.8574C35.0311 23.5994 35.1719 23.7333 35.1719 23.8986V24.8987Z" fill="white"/>
</svg>
