<svg width="40" height="40" viewBox="0 0 40 40" fill="none" xmlns="http://www.w3.org/2000/svg">
<path d="M17.4001 26.2684C17.8286 26.2684 18.2574 26.0683 18.543 25.7255C18.8288 25.3827 18.9145 24.9255 18.8288 24.497L18.2858 22.0397C17.9143 20.3825 16.4287 19.2109 14.7427 19.2109C13.057 19.2109 11.5711 20.411 11.1996 22.0397L10.6567 24.497C10.571 24.9255 10.6567 25.3827 10.9425 25.7255C11.2283 26.0683 11.6283 26.2684 12.0853 26.2684H17.4001ZM11.2284 24.6112L11.7713 22.1539C12.0856 20.7538 13.3142 19.7539 14.7428 19.7539C16.1714 19.7539 17.4 20.754 17.7143 22.1539L18.2572 24.6112C18.3144 24.8683 18.2572 25.1542 18.0858 25.3541C17.9144 25.5542 17.6573 25.6969 17.4 25.6969L12.0855 25.6971C11.8283 25.6971 11.5712 25.5829 11.3997 25.3543C11.2284 25.1542 11.1712 24.897 11.2284 24.6113L11.2284 24.6112Z" fill="white"/>
<path d="M12.3999 15.4681C12.3999 16.7538 13.457 17.8112 14.743 17.8112C16.0287 17.8112 17.0861 16.754 17.0861 15.4681C17.0859 14.1824 16.0287 13.125 14.743 13.125C13.4573 13.125 12.3999 14.1824 12.3999 15.4681ZM16.5145 15.4681C16.5145 16.4395 15.7144 17.2396 14.743 17.2396C13.7716 17.2396 12.9715 16.4395 12.9715 15.4681C12.9715 14.4967 13.7716 13.6966 14.743 13.6966C15.7144 13.6964 16.5145 14.4964 16.5145 15.4681Z" fill="white"/>
<path d="M27.3782 26.2684C27.8067 26.2684 28.2354 26.0683 28.521 25.7255C28.8068 25.3827 28.8925 24.9255 28.8068 24.497L28.2639 22.0397C27.8923 20.3825 26.4067 19.2109 24.7208 19.2109C23.035 19.2109 21.5492 20.411 21.1777 22.0397L20.6347 24.497C20.549 24.9255 20.6347 25.3827 20.9205 25.7255C21.2064 26.0683 21.6063 26.2684 22.0634 26.2684H27.3782ZM21.2064 24.6112L21.7494 22.1539C22.0637 20.7538 23.2922 19.7539 24.7208 19.7539C26.1495 19.7539 27.378 20.754 27.6923 22.1539L28.2352 24.6112C28.2925 24.8683 28.2352 25.1542 28.0638 25.3541C27.8924 25.5542 27.6353 25.6969 27.378 25.6969L22.0635 25.6971C21.8064 25.6971 21.5493 25.5829 21.3777 25.3543C21.2065 25.1542 21.1493 24.897 21.2065 24.6113L21.2064 24.6112Z" fill="white"/>
<path d="M22.3779 15.4681C22.3779 16.7538 23.4351 17.8112 24.721 17.8112C26.0067 17.8112 27.0641 16.754 27.0641 15.4681C27.0639 14.1824 26.0067 13.125 24.721 13.125C23.4353 13.125 22.3779 14.1824 22.3779 15.4681ZM26.4925 15.4681C26.4925 16.4395 25.6924 17.2396 24.721 17.2396C23.7496 17.2396 22.9495 16.4395 22.9495 15.4681C22.9495 14.4967 23.7496 13.6966 24.721 13.6966C25.6924 13.6964 26.4925 14.4964 26.4925 15.4681Z" fill="white"/>
</svg>
