<svg width="64" height="64" viewBox="0 0 64 64" fill="none" xmlns="http://www.w3.org/2000/svg">
<path d="M45.2764 40.8451C45.2764 40.8375 45.2794 40.8308 45.2786 40.824C45.2734 40.758 45.2553 40.6981 45.2292 40.6412C45.2225 40.6284 45.2134 40.6178 45.2059 40.6061C45.1768 40.5574 45.1415 40.514 45.1003 40.4787C45.0905 40.4696 45.086 40.4583 45.0778 40.4508C45.0687 40.4441 45.0559 40.4433 45.0457 40.4365C45.0023 40.4082 44.9559 40.3879 44.905 40.3736C44.8862 40.3676 44.8691 40.3585 44.8495 40.3555C44.8458 40.3548 44.8413 40.3525 44.8368 40.3518L38.6904 39.5122V23.3543C38.6904 22.4016 38.25 21.5148 37.4979 20.935C37.0207 20.538 36.3511 20.222 35.5616 20.0041L35.5619 16.1114H35.5155C35.5147 15.2911 34.1808 15 33.0371 15C31.8933 15 30.5593 15.2914 30.5593 16.1114H30.5129V20.0033C29.74 20.2182 29.0802 20.5254 28.621 20.8976C28.3221 21.1246 28.0891 21.4039 27.8922 21.7051V18.6205C27.8922 17.7179 26.4249 17.3974 25.1667 17.3974C23.9091 17.3974 22.4412 17.7179 22.4412 18.6205V22.9399C21.5613 23.1797 20.8205 23.5273 20.3066 23.9541C19.4767 24.5961 19.0003 25.5569 19.0003 26.5891L19 44.5105C19.003 46.1117 22.199 46.84 25.1657 46.84C25.5963 46.84 26.0302 46.8235 26.4608 46.7921C26.4981 46.9697 26.606 47.1239 26.7843 47.1823L33.8187 49.4301C33.8703 49.4457 33.9235 49.4539 33.9752 49.4539C34.0388 49.4539 34.1041 49.4419 34.1655 49.4166L44.9569 45.1016C45.1525 45.0244 45.2789 44.8358 45.2789 44.6259V40.8584C45.2789 40.8538 45.2759 40.8501 45.2759 40.8451L45.2764 40.8451ZM28.4816 40.8599C27.6533 41.0695 26.5626 41.2305 25.1665 41.2305C24.043 41.2305 23.1179 41.1242 22.3586 40.9752V32.8847C23.2446 33.0397 24.2146 33.1184 25.1665 33.1184C26.3051 33.1184 27.4712 33.0091 28.4816 32.7867V40.8599ZM42.2371 41.0299L33.9611 43.33L30.3172 42.527V42.1428L38.3031 40.4949L38.3121 40.4934L42.2371 41.0299ZM33.0373 15.9245C33.6005 15.9245 34.0244 16.0009 34.298 16.0847C34.0314 16.17 33.6111 16.2532 33.0373 16.2532C32.465 16.2532 32.0464 16.1707 31.7773 16.0847C32.051 16.0009 32.4748 15.9245 33.0373 15.9245ZM31.5296 17.0818C32.4193 17.3446 33.6552 17.3446 34.545 17.0818V20.8096C34.3629 20.9175 33.8291 21.0717 33.0373 21.0717C32.2471 21.0717 31.711 20.9175 31.5289 20.8096V17.0818H31.5296ZM29.248 21.6992C29.5602 21.4446 30.0118 21.2234 30.537 21.0529C30.6637 21.8088 31.8807 22.0882 33.0378 22.0882C34.1949 22.0882 35.4129 21.8088 35.5378 21.0515C36.0762 21.226 36.5354 21.456 36.8619 21.727C37.3773 22.1248 37.6739 22.7179 37.6739 23.3546V39.5799L31.989 40.7513C31.7635 40.7355 31.5418 40.7162 31.3351 40.6914V37.4902C31.8931 37.5516 32.4669 37.589 33.0377 37.589C34.2503 37.589 35.5004 37.4548 36.5145 37.1762V27.9089C36.2532 27.9929 35.9347 28.0662 35.5909 28.1351C34.901 28.27 34.0591 28.3666 33.0382 28.3666C32.4022 28.3666 31.8367 28.3292 31.3356 28.2693V26.5885C31.3356 25.5408 30.8473 24.5707 30.01 23.94C29.5995 23.6075 29.058 23.3289 28.4318 23.1094C28.4983 22.5597 28.7754 22.0564 29.2479 21.699L29.248 21.6992ZM31.3348 36.5686V29.1913C31.8927 29.2528 32.4665 29.2909 33.0373 29.2909C33.9026 29.2909 34.7848 29.2182 35.5901 29.0775V36.4342C34.9002 36.5691 34.0583 36.6664 33.0373 36.6664C32.4021 36.6664 31.8358 36.629 31.3348 36.5683V36.5686ZM25.1668 18.4147C25.8431 18.4147 26.3465 18.515 26.6401 18.6176C26.5644 18.6439 26.4912 18.6723 26.3871 18.6971C26.3773 18.7001 26.363 18.7009 26.352 18.7046C26.2291 18.733 26.0824 18.757 25.9244 18.7781C25.8787 18.7834 25.8324 18.7901 25.7837 18.7939C25.5956 18.8127 25.3942 18.8275 25.1673 18.8275C24.9403 18.8275 24.7397 18.8124 24.5524 18.7939C24.5045 18.7894 24.4558 18.7826 24.4094 18.7781C24.2552 18.7578 24.1135 18.7347 23.9921 18.7069C23.9778 18.7031 23.9593 18.7001 23.9457 18.6971C23.8416 18.6723 23.7682 18.6439 23.6932 18.6176C23.9863 18.5143 24.4897 18.4147 25.1668 18.4147L25.1668 18.4147ZM23.4577 19.6132C23.4833 19.6215 23.5131 19.623 23.5372 19.6312C23.7363 19.6897 23.9463 19.7383 24.1679 19.7714C24.2968 19.7925 24.427 19.8028 24.5612 19.8148C24.6432 19.8213 24.7249 19.8274 24.8074 19.8311C25.0517 19.8454 25.2897 19.8454 25.5347 19.8311C25.6112 19.8274 25.6867 19.8213 25.7632 19.8161C25.9046 19.8018 26.0425 19.7905 26.1789 19.7689C26.3969 19.7361 26.6035 19.6879 26.7999 19.6295C26.8232 19.622 26.8531 19.6205 26.8779 19.6129V23.8163C26.6928 23.9407 26.0892 24.1263 25.1685 24.1263C24.2479 24.1263 23.6443 23.9404 23.4592 23.8163V19.6132L23.4577 19.6132ZM20.0175 44.5093V26.5885C20.0175 25.8733 20.3493 25.2052 20.9434 24.7461C21.3045 24.4464 21.8339 24.1866 22.4563 23.9925C22.5351 24.8366 23.946 25.1438 25.1671 25.1438C25.9731 25.1438 26.8501 25.0052 27.385 24.6734C27.6606 24.5018 27.8509 24.2801 27.8778 23.9925C28.0666 24.051 28.2299 24.1275 28.4006 24.1977C28.7803 24.3564 29.1264 24.531 29.3827 24.7384C29.9773 25.1878 30.3181 25.8619 30.3181 26.5883V41.0976L29.4988 41.2668V40.538L29.4983 32.5047V31.409C29.2325 31.5221 28.8766 31.63 28.4819 31.731C27.6536 31.9407 26.5629 32.1017 25.1668 32.1017C24.0433 32.1017 23.1181 31.9954 22.3588 31.8472C21.9799 31.7722 21.6293 31.6907 21.3431 31.5984V41.7927C22.4584 42.0999 23.8344 42.2474 25.1668 42.2474C25.5944 42.2474 26.0252 42.2271 26.4498 42.1957C26.4781 42.0856 26.5388 41.9906 26.6274 41.9216C26.6304 41.9178 26.6304 41.9126 26.6349 41.9096C26.6371 41.9081 26.6416 41.9081 26.6432 41.9058C26.6371 41.9096 26.6319 41.9163 26.6274 41.9216C26.5421 41.9928 26.4939 42.0909 26.4686 42.1957C26.4596 42.2331 26.443 42.2684 26.443 42.3081V42.3948L26.431 45.7766C26.0378 45.8065 25.619 45.8245 25.1668 45.8245C21.771 45.8245 20.0183 44.9024 20.0175 44.5092L20.0175 44.5093ZM27.4551 46.319L27.4566 45.6645L27.4664 42.9553L30.3185 43.5808L31.3349 43.804L33.4635 44.2699V48.241L27.4551 46.319ZM44.2562 44.2801L34.4888 48.1853V44.247L44.2562 41.5333V44.2801Z" fill="white"/>
</svg>
