<svg width="48" height="48" viewBox="0 0 48 48" fill="none" xmlns="http://www.w3.org/2000/svg">
<path d="M22.2462 23.5117V20.4418C22.2462 19.7942 21.9974 19.1732 21.5545 18.7153C21.1118 18.2572 20.5112 18 19.8851 18H14.8926C14.2665 18 13.6659 18.2573 13.2232 18.7153C12.7802 19.1731 12.5315 19.7942 12.5315 20.4418V23.5117C12.1466 23.7155 11.8232 24.0253 11.597 24.4066C11.371 24.7881 11.2508 25.2265 11.25 25.6741V29.5116C11.25 29.7813 11.4614 30 11.7222 30C11.983 30 12.1944 29.7813 12.1944 29.5116V28.3259H22.5833V29.5116C22.5833 29.7813 22.7947 30 23.0555 30C23.3162 30 23.5277 29.7813 23.5277 29.5116V25.6741C23.5268 25.2266 23.4067 24.7881 23.1807 24.4066C22.9545 24.0253 22.6311 23.7155 22.2462 23.5117H22.2462ZM13.4764 23.2285L13.4762 20.4418C13.4762 20.0533 13.6254 19.6807 13.8913 19.406C14.1569 19.131 14.5172 18.9767 14.8928 18.9767H19.8853C20.261 18.9767 20.6213 19.131 20.8869 19.406C21.1527 19.6807 21.302 20.0533 21.302 20.4418V23.2321L19.6066 23.2324V22.3952C19.6066 22.0067 19.4574 21.6341 19.1918 21.3594C18.9261 21.0844 18.5656 20.9301 18.19 20.9301H16.5845C16.2088 20.9301 15.8485 21.0844 15.5827 21.3594C15.3171 21.6341 15.1678 22.0067 15.1678 22.3952V23.2321L13.4763 23.2323L13.4764 23.2285ZM18.6624 23.2285H16.1124V22.3915L16.1122 22.3913C16.1122 22.1216 16.3236 21.9029 16.5844 21.9029H18.1899C18.3152 21.9029 18.4353 21.9544 18.5239 22.0462C18.6124 22.1377 18.6622 22.2618 18.6622 22.3913L18.6624 23.2285ZM12.1949 25.6741C12.1949 25.2854 12.3441 24.9128 12.6097 24.6381C12.8754 24.3635 13.2359 24.2091 13.6115 24.2091H21.167C21.5426 24.2091 21.9032 24.3634 22.1687 24.6381C22.4343 24.9128 22.5836 25.2855 22.5836 25.6741V27.3492H12.1948L12.1949 25.6741ZM35.4685 23.5116V20.4418C35.4685 19.7942 35.2197 19.1732 34.7768 18.7153C34.3341 18.2572 33.7335 18 33.1074 18H28.1149C27.4888 18 26.8883 18.2573 26.4455 18.7153C26.0026 19.1731 25.7538 19.7942 25.7538 20.4418V23.5116C25.3693 23.715 25.0464 24.0242 24.8202 24.4049C24.5942 24.7857 24.4738 25.2233 24.4723 25.6702V29.5077C24.4723 29.7774 24.6838 29.9961 24.9445 29.9961C25.2053 29.9961 25.4167 29.7774 25.4167 29.5077V28.3259H35.8056V29.5116C35.8056 29.7813 36.017 30 36.2778 30C36.5386 30 36.75 29.7813 36.75 29.5116V25.6741C36.7492 25.2265 36.6292 24.7881 36.403 24.4066C36.177 24.0251 35.8536 23.7155 35.4685 23.5116ZM26.6987 23.2284L26.6985 20.4418C26.6985 20.0533 26.8478 19.6807 27.1136 19.4059C27.3792 19.131 27.7395 18.9767 28.1152 18.9767H33.1076C33.4833 18.9767 33.8436 19.131 34.1092 19.4059C34.3751 19.6806 34.5243 20.0533 34.5243 20.4418V23.2321L32.83 23.2323V22.3952C32.83 22.0067 32.6807 21.6341 32.4149 21.3594C32.1493 21.0844 31.789 20.9301 31.4133 20.9301H29.8078C29.4319 20.9301 29.0716 21.0844 28.806 21.3594C28.5404 21.6341 28.3911 22.0067 28.3911 22.3952V23.2321L26.6986 23.2323L26.6987 23.2284ZM31.8855 23.2284H29.3355V22.3913C29.3355 22.1216 29.5468 21.9029 29.8078 21.9029H31.4133C31.5385 21.9029 31.6585 21.9544 31.747 22.0461C31.8358 22.1377 31.8855 22.2618 31.8855 22.3913V23.2284ZM25.4169 25.6702C25.4169 25.2817 25.5662 24.9089 25.8318 24.6342C26.0974 24.3596 26.4579 24.2052 26.8336 24.2052H34.3891C34.7647 24.2052 35.1252 24.3595 35.3908 24.6342C35.6564 24.9089 35.8057 25.2818 35.8057 25.6702V27.3452H25.4169L25.4169 25.6702Z" fill="#DEE4D1"/>
</svg>
