<svg width="48" height="48" viewBox="0 0 48 48" fill="none" xmlns="http://www.w3.org/2000/svg">
<path d="M26.2321 23.2925C26.2315 23.5018 26.2237 23.7112 26.206 23.9199C26.199 24.0044 26.2053 24.118 26.1775 24.198C26.189 24.1115 26.1905 24.1005 26.1819 24.1653C26.178 24.1922 26.1741 24.2191 26.1703 24.246C26.1624 24.2996 26.1537 24.3533 26.1446 24.4068C26.0809 24.7789 25.9888 25.1458 25.8701 25.5038C25.8387 25.5984 25.8051 25.6921 25.7699 25.7854C25.7535 25.8292 25.7367 25.8729 25.7198 25.9165C25.6954 25.9772 25.6976 25.9727 25.726 25.9035C25.7158 25.9282 25.7054 25.953 25.6946 25.9777C25.6245 26.1411 25.5494 26.3024 25.4682 26.4606C25.3693 26.6535 25.2633 26.8425 25.1496 27.0268C25.021 27.2357 24.8162 27.453 24.8162 27.7113C24.8422 27.6132 24.8681 27.5152 24.8938 27.4169C24.8357 27.499 24.7795 27.5844 24.7162 27.6625C24.8169 27.5384 24.6959 27.6868 24.6773 27.7105C24.6498 27.7455 24.622 27.7803 24.5941 27.8145C24.4591 27.9801 24.3184 28.1409 24.1718 28.2962C23.9032 28.5815 23.6167 28.8504 23.3144 29.0983H24.1195C23.7773 28.8153 23.4536 28.509 23.1539 28.1791C23.0334 28.0466 22.9169 27.9101 22.8045 27.7702C22.7663 27.7228 22.7287 27.675 22.6913 27.6267C22.6009 27.509 22.7435 27.7003 22.6817 27.6139C22.6136 27.5184 22.5442 27.4239 22.4781 27.3267C22.2334 26.9656 22.0169 26.5842 21.8324 26.1869C21.8095 26.1374 21.7871 26.0876 21.7651 26.0376C21.7531 26.0103 21.7417 25.9826 21.7293 25.9553C21.6913 25.8703 21.7822 26.0881 21.7318 25.9618C21.6978 25.8772 21.6651 25.7922 21.634 25.7064C21.5514 25.4782 21.4797 25.2463 21.4187 25.011C21.3652 24.8043 21.3209 24.5952 21.285 24.3846C21.2749 24.3252 21.2658 24.2658 21.2572 24.2061C21.2543 24.1861 21.2406 24.0923 21.2525 24.1739C21.265 24.2601 21.2512 24.1588 21.2507 24.1554C21.2393 24.0575 21.23 23.959 21.2224 23.8608C21.1871 23.3973 21.1951 22.93 21.2461 22.4681C21.2494 22.4396 21.2528 22.4111 21.2562 22.3825C21.2687 22.2741 21.2526 22.3939 21.2526 22.4098C21.2528 22.3421 21.2741 22.2646 21.2852 22.198C21.3066 22.0718 21.3312 21.946 21.359 21.8211C21.4143 21.5724 21.4824 21.3265 21.5623 21.085C21.5977 20.9779 21.6356 20.8717 21.6757 20.7664C21.6963 20.7118 21.7202 20.6581 21.7399 20.6031C21.6926 20.7362 21.7142 20.6648 21.7274 20.6344C21.7428 20.5984 21.7581 20.5628 21.7739 20.5271C21.8685 20.3125 21.9731 20.1025 22.0863 19.8974C22.2129 19.6681 22.3504 19.4453 22.4978 19.2295C22.5349 19.1752 22.5724 19.1215 22.611 19.068C22.6263 19.0466 22.6417 19.0254 22.6572 19.0041C22.6726 18.9829 22.6884 18.9616 22.704 18.9406C22.6902 18.9587 22.6765 18.9772 22.6625 18.9954C22.75 18.8979 22.8255 18.7864 22.9098 18.6853C23.2752 18.2479 23.6818 17.8483 24.1188 17.4864H23.3137C23.6566 17.7703 23.981 18.0768 24.2814 18.4077C24.433 18.575 24.5787 18.7478 24.7175 18.9266C24.7328 18.9463 24.7471 18.9674 24.7632 18.9861C24.7547 18.9763 24.6833 18.8778 24.7417 18.9579C24.7712 18.9981 24.8008 19.0383 24.8299 19.0787C24.8949 19.1697 24.9584 19.2619 25.0198 19.3557C25.2568 19.7166 25.4663 20.0964 25.6435 20.4917C25.6663 20.5423 25.6878 20.5933 25.7097 20.644C25.7406 20.7146 25.6663 20.5353 25.6948 20.6071C25.7061 20.6358 25.7177 20.6643 25.7289 20.693C25.7694 20.7961 25.8076 20.9001 25.8437 21.0051C25.9218 21.2324 25.9893 21.4633 26.0452 21.697C26.0784 21.8351 26.1077 21.9741 26.1329 22.114C26.1456 22.1842 26.1573 22.2547 26.168 22.3252C26.1719 22.3503 26.1804 22.3837 26.1804 22.4102C26.1797 22.2575 26.1776 22.3898 26.1817 22.4258C26.2157 22.7129 26.2313 23.0026 26.2321 23.2925C26.2331 23.5976 26.4933 23.8899 26.8014 23.8757C27.1089 23.8615 27.3716 23.6193 27.3706 23.2925C27.3647 21.2318 26.56 19.2867 25.2371 17.7528C24.8957 17.3569 24.52 16.9936 24.1191 16.6617C23.8597 16.447 23.5754 16.4452 23.3141 16.6617C21.7269 17.9762 20.5201 19.8482 20.1805 21.93C19.8593 23.9 20.2568 25.9218 21.2989 27.6122C21.8397 28.4892 22.5264 29.2721 23.314 29.9229C23.4301 30.0188 23.5589 30.1009 23.7165 30.0938C23.8766 30.0866 23.9948 30.0248 24.1191 29.9229C24.4471 29.6542 24.7565 29.3602 25.0448 29.0475C25.1969 28.8823 25.3424 28.7114 25.482 28.5349C25.5719 28.4212 25.6589 28.3056 25.745 28.1889C25.8518 28.0441 25.9544 27.9042 25.9544 27.7105C25.9284 27.8087 25.9025 27.9066 25.8769 28.005C26.8307 26.6357 27.3655 24.9763 27.3705 23.2929C27.3715 22.9877 27.108 22.6956 26.8013 22.7096C26.4919 22.7238 26.2332 22.9657 26.232 23.2929L26.2321 23.2925Z" fill="white"/>
<path d="M32.8326 26.1246C32.8006 26.2168 32.7675 26.3084 32.7326 26.3994C32.7165 26.4416 32.6996 26.4835 32.6831 26.5255C32.6461 26.6212 32.694 26.5055 32.6968 26.4934C32.6895 26.5235 32.6716 26.5539 32.6594 26.582C32.5844 26.7572 32.5039 26.9296 32.4176 27.0993C32.2461 27.4357 32.0516 27.76 31.8335 28.0668C31.8052 28.1064 31.7768 28.1454 31.748 28.1846C31.6876 28.2667 31.8254 28.0843 31.7384 28.1962C31.6793 28.2721 31.6189 28.3467 31.5567 28.42C31.4413 28.556 31.3209 28.6877 31.1949 28.8136C31.0662 28.9426 30.9319 29.0661 30.7928 29.1832C30.7598 29.2111 30.7258 29.2381 30.6926 29.2656C30.6321 29.3155 30.777 29.2014 30.7143 29.2481C30.6983 29.2599 30.6829 29.2724 30.6669 29.2842C30.5827 29.3479 30.4968 29.4095 30.4092 29.4684C30.2395 29.5827 30.0642 29.6876 29.8837 29.7828C29.796 29.829 29.7072 29.8728 29.6173 29.9141C29.5992 29.9224 29.581 29.9303 29.5631 29.9386C29.4919 29.9723 29.6628 29.8976 29.5898 29.9271C29.5407 29.9471 29.4917 29.9678 29.4423 29.9868C29.0802 30.1272 28.7041 30.2287 28.3215 30.2887C28.304 30.2915 28.2662 30.292 28.248 30.2997C28.2583 30.2952 28.3897 30.2822 28.289 30.2934C28.2459 30.298 28.2031 30.3032 28.1602 30.3074C28.0621 30.3169 27.9637 30.3237 27.8653 30.3279C27.6811 30.3355 27.4965 30.3339 27.3122 30.3232C27.22 30.3179 27.1279 30.3102 27.0362 30.3C26.9931 30.2954 26.9507 30.2897 26.9076 30.2847C26.8301 30.2754 27.0258 30.3029 26.9487 30.29C26.9181 30.2849 26.8877 30.2807 26.8571 30.2755C26.6732 30.245 26.4907 30.2054 26.3102 30.1576C26.1031 30.1027 25.899 30.0372 25.6982 29.9618C25.6445 29.9418 25.5912 29.9208 25.5378 29.8993C25.4996 29.8836 25.3399 29.7968 25.4791 29.8758C25.3844 29.8223 25.2786 29.7841 25.181 29.7356C24.7716 29.531 24.3827 29.2867 24.0141 29.0126V30.0197C24.0168 30.0179 24.0196 30.0157 24.0222 30.0139C23.9264 30.0406 23.8308 30.0671 23.7348 30.0934C26.0404 30.0362 28.348 29.0996 29.819 27.2288C30.3251 26.5849 30.7166 25.8862 31.0137 25.1177C30.7803 25.2535 30.547 25.3893 30.3136 25.5249C30.5693 25.5717 30.822 25.6339 31.0702 25.7122C31.1896 25.7497 31.308 25.791 31.4249 25.8357C31.487 25.8592 31.5488 25.8837 31.61 25.9094C31.6419 25.9227 31.7354 25.9478 31.603 25.9057C31.6344 25.9157 31.6646 25.9332 31.6947 25.9467C32.189 26.1725 32.6556 26.4569 33.0927 26.783C33.3343 26.9631 33.7378 26.8332 33.8715 26.5737C34.0276 26.2709 33.9251 25.9682 33.6672 25.7759C32.7654 25.1033 31.718 24.6024 30.6161 24.4001C30.2871 24.3396 30.0382 24.4909 29.916 24.8074C29.9013 24.8452 29.8893 24.888 29.8703 24.9239C29.942 24.789 29.8764 24.9089 29.8636 24.9385C29.8306 25.0153 29.7964 25.0912 29.761 25.1666C29.6897 25.3178 29.6131 25.4666 29.5316 25.6122C29.4563 25.7465 29.3768 25.8783 29.2931 26.0075C29.2112 26.1335 29.1047 26.2523 29.0317 26.3831C29.107 26.2479 29.0631 26.3413 29.0358 26.3762C29.0143 26.4037 28.9927 26.4311 28.9709 26.4584C28.9274 26.5126 28.8832 26.5659 28.8382 26.6189C28.7487 26.7237 28.656 26.8258 28.5604 26.9246C28.3789 27.1126 28.1868 27.2897 27.9854 27.4552C27.9594 27.4767 27.9319 27.4967 27.9067 27.5189C28.0326 27.4081 27.9453 27.4881 27.9153 27.5107C27.8708 27.5447 27.8256 27.5784 27.78 27.6115C27.6618 27.6974 27.5409 27.7793 27.4178 27.8572C27.1994 27.9953 26.9738 28.1208 26.7421 28.2338C26.6816 28.2634 26.6204 28.2921 26.5589 28.3199C26.5284 28.3337 26.4963 28.3456 26.4666 28.3609C26.4747 28.3567 26.5975 28.3061 26.5093 28.3421C26.3734 28.3976 26.2371 28.4517 26.0985 28.5002C25.8515 28.587 25.6 28.661 25.346 28.722C25.2008 28.757 25.0545 28.7878 24.9077 28.8143C24.828 28.8288 24.7483 28.8422 24.6685 28.8541C24.6527 28.8565 24.5366 28.8721 24.641 28.8586C24.748 28.8448 24.5972 28.864 24.5784 28.8663C24.4274 28.8848 24.276 28.8988 24.1243 28.909C23.9143 28.9231 23.6144 28.885 23.44 29.0121C23.2722 29.1344 23.1582 29.2957 23.1582 29.5159C23.1582 29.7373 23.273 29.8951 23.44 30.0196C24.7982 31.0298 26.5058 31.6458 28.1969 31.4702C29.0919 31.3774 29.9558 31.1023 30.7336 30.6345C31.4303 30.2158 32.0526 29.6547 32.554 29.0063C33.155 28.2295 33.6046 27.3676 33.9294 26.4343C34.0296 26.1463 33.8166 25.7832 33.5319 25.7169C33.2138 25.6426 32.9401 25.8164 32.8329 26.1247L32.8326 26.1246Z" fill="white"/>
<path d="M23.4409 29.0126C23.1182 29.2524 22.7801 29.4699 22.4259 29.6575C22.3423 29.7018 22.2579 29.7443 22.1726 29.7851C22.1243 29.8083 22.0757 29.8311 22.0268 29.853C22.0085 29.8611 21.9902 29.8691 21.972 29.8775C21.9007 29.9099 22.1029 29.8236 21.9794 29.874C21.802 29.9463 21.6233 30.0138 21.4409 30.0716C21.2567 30.1301 21.0698 30.1802 20.881 30.2214C20.7819 30.2429 20.6824 30.2621 20.5825 30.2784C20.5611 30.2819 20.5398 30.2847 20.5183 30.2884C20.4363 30.3029 20.6237 30.2757 20.5412 30.2855C20.4841 30.2924 20.4269 30.2995 20.3698 30.3052C19.9572 30.346 19.5465 30.3355 19.1347 30.2895C19.0527 30.2804 19.2408 30.3069 19.1593 30.2929C19.1383 30.2892 19.1172 30.2864 19.096 30.2829C19.0469 30.2747 18.9976 30.266 18.9485 30.2566C18.8428 30.2362 18.7377 30.2127 18.6333 30.1861C18.4294 30.1341 18.2282 30.0699 18.0315 29.9943C17.9881 29.9778 17.945 29.9604 17.9019 29.9428C17.8839 29.9353 17.8655 29.9251 17.8468 29.9196C17.8611 29.9238 17.9657 29.9733 17.8736 29.9306C17.7837 29.8891 17.6942 29.8466 17.6062 29.8011C17.4368 29.7135 17.2715 29.6168 17.1117 29.512C17.0344 29.4614 16.9585 29.4092 16.8838 29.3547C16.8464 29.3277 16.8093 29.2999 16.7724 29.2719C16.7576 29.2607 16.7417 29.2444 16.7252 29.2357C16.8339 29.2931 16.7652 29.2677 16.7319 29.2404C16.5997 29.1326 16.4718 29.0189 16.3487 28.9003C16.2251 28.7813 16.1064 28.657 15.9924 28.5282C15.9371 28.4654 15.8826 28.4017 15.8296 28.3371C15.8029 28.3046 15.7766 28.2717 15.7504 28.2389C15.7354 28.2201 15.7208 28.2009 15.7058 28.1819C15.6586 28.1224 15.7131 28.1913 15.7291 28.2134C15.4936 27.881 15.2712 27.5456 15.0811 27.183C14.9871 27.0038 14.9 26.8209 14.8188 26.6349C14.7983 26.588 14.7794 26.5402 14.7586 26.4936C14.8279 26.65 14.7502 26.4697 14.737 26.4357C14.6971 26.3329 14.6596 26.2291 14.6231 26.1248C14.536 26.3443 14.4488 26.5639 14.3615 26.7834C14.7957 26.4593 15.2587 26.1766 15.7494 25.9515C15.778 25.9382 15.8141 25.9275 15.8405 25.9105C15.8125 25.9287 15.7455 25.9503 15.8141 25.922C15.8751 25.8969 15.9361 25.8717 15.9979 25.8479C16.1202 25.8007 16.2438 25.757 16.3684 25.7174C16.6148 25.6387 16.8658 25.5764 17.1196 25.5291C16.8863 25.3933 16.6529 25.2575 16.4195 25.1218C16.8926 26.3436 17.633 27.4514 18.6382 28.2777C19.5477 29.0252 20.6042 29.5566 21.7389 29.8363C22.3812 29.9947 23.0584 30.0936 23.72 30.0936C23.6242 30.0669 23.5286 30.0404 23.4326 30.0141C23.4354 30.0159 23.4379 30.0177 23.4406 30.0197C23.6872 30.1922 24.0827 30.0757 24.2193 29.8104C24.3719 29.5147 24.2784 29.1964 24.0151 29.0126C23.8534 28.8996 23.6213 28.9269 23.4333 28.9169C23.2931 28.9094 23.1531 28.8988 23.0133 28.8845C22.9439 28.8775 22.8746 28.8688 22.8055 28.8606C22.6791 28.8456 22.9449 28.8815 22.8192 28.8628C22.7964 28.8593 22.7735 28.856 22.7507 28.8525C22.6028 28.8298 22.4557 28.8033 22.3091 28.7725C22.053 28.7186 21.7991 28.6523 21.5493 28.5728C21.4202 28.5318 21.2922 28.4872 21.1655 28.4392C21.1129 28.4194 21.0606 28.3985 21.0082 28.3775C20.977 28.3649 20.9457 28.3517 20.9147 28.3389C20.8207 28.3002 21.042 28.3959 20.8963 28.3306C20.4172 28.1154 19.9606 27.8475 19.5399 27.5287C19.5136 27.5087 19.4877 27.4849 19.4597 27.467C19.5957 27.5535 19.5017 27.5004 19.4695 27.474C19.4171 27.4314 19.3652 27.3879 19.3142 27.3439C19.2115 27.2552 19.1115 27.1633 19.0143 27.0684C18.8178 26.8766 18.6327 26.6725 18.4603 26.4577C18.4457 26.4396 18.4313 26.4216 18.417 26.4031C18.3887 26.3671 18.3178 26.2361 18.4 26.3826C18.3606 26.3126 18.302 26.2489 18.2563 26.1826C18.1529 26.0332 18.0553 25.8795 17.9636 25.7224C17.8725 25.5662 17.7873 25.4069 17.7084 25.2441C17.6661 25.1568 17.6253 25.0687 17.5864 24.9798C17.5699 24.942 17.5513 24.904 17.5375 24.865C17.5928 25.0202 17.5294 24.8412 17.5176 24.8114C17.3963 24.4978 17.1494 24.342 16.8175 24.4041C15.7234 24.6087 14.6835 25.1075 13.7874 25.7759C13.5939 25.9203 13.4363 26.1771 13.5257 26.4344C14.0641 27.9817 14.9652 29.3732 16.2774 30.3384C17.7585 31.4279 19.6666 31.7456 21.4244 31.2881C22.3561 31.0456 23.2391 30.5964 24.0155 30.0191C24.139 29.9275 24.2352 29.8265 24.2772 29.6705C24.3148 29.5311 24.2977 29.3451 24.2198 29.2213C24.0663 28.9777 23.6987 28.821 23.4409 29.0127L23.4409 29.0126Z" fill="white"/>
<path d="M29.9173 24.8077C29.9027 24.8456 29.8906 24.8884 29.8716 24.9242C29.9433 24.7894 29.8778 24.9092 29.8649 24.9389C29.8319 25.0154 29.7978 25.0917 29.7623 25.167C29.6911 25.3181 29.6145 25.4669 29.533 25.6126C29.4577 25.7469 29.3781 25.8787 29.2944 26.0078C29.2129 26.1336 29.1059 26.2528 29.033 26.3834C29.1083 26.2483 29.0644 26.3416 29.0371 26.3766C29.0156 26.4041 28.994 26.4314 28.9722 26.4588C28.9359 26.5041 28.8992 26.5486 28.8618 26.5929C28.7691 26.7025 28.6728 26.8094 28.5736 26.9127C28.3887 27.1053 28.1927 27.2866 27.9868 27.4556C27.9607 27.4771 27.9333 27.4971 27.9081 27.5192C28.0196 27.4211 27.9718 27.4693 27.9435 27.4906C27.8895 27.5312 27.836 27.5722 27.7814 27.6119C27.6722 27.6911 27.561 27.7669 27.4476 27.8394C27.2251 27.9815 26.995 28.1106 26.7587 28.2266C26.7031 28.2539 26.6473 28.2803 26.5912 28.3061C26.5604 28.3201 26.5297 28.3339 26.499 28.3476C26.3864 28.3984 26.6252 28.2956 26.5108 28.3423C26.3854 28.3936 26.2597 28.4437 26.1319 28.4892C25.8853 28.5772 25.6344 28.652 25.3806 28.7144C25.2356 28.7499 25.0897 28.7813 24.943 28.8087C24.8634 28.8233 24.7838 28.8372 24.7039 28.8495C24.6697 28.8548 24.6344 28.8577 24.6008 28.8648C24.7686 28.8288 24.6533 28.8577 24.614 28.8625C24.3178 28.8998 24.0158 28.9273 23.717 28.9273C23.8512 29.2593 23.9855 29.5911 24.1195 29.923C25.0558 29.1206 25.871 28.178 26.4425 27.0658C27.0721 25.8405 27.4079 24.4605 27.3679 23.0735C27.3445 22.2657 27.2019 21.4575 26.9421 20.6944C26.855 20.9139 26.7678 21.1335 26.6804 21.353C26.9794 21.1436 27.2928 20.9574 27.6195 20.7971C27.6986 20.7585 27.7787 20.722 27.8586 20.6851C27.9154 20.6602 27.9046 20.6647 27.8266 20.6986C27.8498 20.6888 27.8731 20.679 27.8962 20.6693C27.9429 20.65 27.9895 20.631 28.0367 20.6127C28.2019 20.548 28.3696 20.4895 28.5388 20.437C28.8945 20.3264 29.2577 20.2424 29.6247 20.1834C29.6633 20.1774 29.7016 20.1716 29.7402 20.1657C29.8034 20.1566 29.7916 20.1582 29.7049 20.1704C29.7306 20.1669 29.7566 20.1636 29.7825 20.1606C29.8734 20.1494 29.9645 20.1397 30.0557 20.1316C30.2531 20.1139 30.4509 20.1036 30.649 20.0991C30.4659 19.9563 30.2831 19.8135 30.1001 19.671C30.1604 19.9001 30.2139 20.1307 30.2593 20.3637C30.2816 20.4787 30.3021 20.5942 30.3203 20.7101C30.3294 20.7678 30.3375 20.8256 30.3463 20.8833C30.3554 20.9493 30.3543 20.9409 30.3434 20.8578C30.347 20.8864 30.3507 20.9154 30.3541 20.9441C30.4078 21.399 30.4294 21.8579 30.4158 22.316C30.4089 22.541 30.3936 22.7658 30.3693 22.9895C30.3657 23.0239 30.3489 23.2168 30.3645 23.0425C30.3598 23.0979 30.3491 23.1534 30.3406 23.2082C30.3235 23.318 30.3044 23.4275 30.2831 23.5366C30.1965 23.9704 30.0744 24.3955 29.9173 24.8077C29.8667 24.9402 29.9075 25.1395 29.9747 25.257C30.0436 25.3781 30.1791 25.4933 30.3149 25.5251C30.6417 25.6014 30.8989 25.4226 31.0151 25.1178C31.558 23.6931 31.655 22.1429 31.4522 20.6378C31.3942 20.2068 31.3078 19.7809 31.1972 19.3607C31.1335 19.118 30.8965 18.9267 30.6483 18.9326C29.0458 18.9692 27.4368 19.413 26.1055 20.3457C25.9074 20.4845 25.7576 20.7511 25.8438 21.0042C25.951 21.319 26.0391 21.6401 26.105 21.9666C26.1204 22.0434 26.1347 22.1204 26.1477 22.1975C26.1547 22.2397 26.1616 22.282 26.1681 22.3245C26.1726 22.3548 26.1988 22.5006 26.1715 22.3395C26.199 22.5016 26.2081 22.6698 26.218 22.8339C26.2387 23.1745 26.2364 23.5165 26.2107 23.8568C26.2052 23.9284 26.1988 24.0001 26.1913 24.0714C26.1868 24.114 26.1817 24.1567 26.1767 24.1995C26.1601 24.3472 26.1967 24.0677 26.1744 24.2145C26.1484 24.3832 26.1198 24.5511 26.0835 24.7179C26.015 25.0354 25.9257 25.3483 25.8173 25.6541C25.7958 25.7142 25.7738 25.7741 25.7511 25.8337C25.7376 25.8685 25.7237 25.903 25.7103 25.9377C25.6623 26.0615 25.7636 25.8142 25.7109 25.9364C25.6517 26.0735 25.5909 26.2095 25.5253 26.3435C25.399 26.6012 25.2588 26.8519 25.1059 27.0942C25.0324 27.2108 24.9561 27.3258 24.8769 27.4384C24.8406 27.4899 24.8042 27.5411 24.767 27.5917C24.7595 27.6017 24.752 27.6121 24.7447 27.6221C24.7076 27.6716 24.7146 27.6624 24.7657 27.5947C24.7497 27.6356 24.6998 27.6801 24.6728 27.7144C24.268 28.227 23.8064 28.6755 23.3135 29.0978C23.1409 29.2458 23.1147 29.5381 23.1957 29.7349C23.2829 29.9465 23.4877 30.0935 23.716 30.0935C24.3051 30.0935 24.9062 30.0102 25.4813 29.8852C26.0625 29.7587 26.6225 29.5616 27.1646 29.313C28.1868 28.8441 29.1166 28.123 29.8197 27.2285C30.3256 26.5848 30.7173 25.8858 31.0144 25.1174C31.0655 24.9856 31.024 24.7851 30.957 24.6682C30.888 24.547 30.7526 24.4319 30.6168 24.4001C30.289 24.3237 30.0347 24.5032 29.9171 24.8077L29.9173 24.8077Z" fill="white"/>
<path d="M23.7169 28.9273C23.5057 28.9226 23.2944 28.911 23.084 28.8913C22.9854 28.882 22.8875 28.8701 22.7891 28.8585C22.7135 28.8493 22.9122 28.8765 22.8371 28.8653C22.8141 28.8618 22.7914 28.8588 22.7683 28.8553C22.7112 28.8467 22.6543 28.8377 22.5973 28.8278C22.1987 28.759 21.8048 28.6605 21.4208 28.5309C21.3299 28.5 21.2398 28.4677 21.15 28.4336C21.1027 28.4156 21.0555 28.3969 21.0087 28.3781C20.9667 28.3611 20.7982 28.2748 20.9581 28.3582C20.7895 28.2703 20.6125 28.1986 20.4442 28.1085C20.2667 28.0133 20.0935 27.9103 19.9248 27.8C19.8452 27.748 19.7666 27.694 19.6892 27.6389C19.6482 27.6095 19.6074 27.5796 19.5672 27.5496C19.5319 27.5229 19.3898 27.3974 19.5226 27.5171C19.226 27.2494 18.9272 26.999 18.6613 26.6966C18.5966 26.6231 18.5336 26.5479 18.4718 26.4716C18.439 26.4309 18.4069 26.3898 18.3749 26.3486C18.3539 26.3218 18.315 26.261 18.4006 26.3831C18.3806 26.3545 18.3589 26.3266 18.3384 26.2981C18.2005 26.1073 18.072 25.909 17.9536 25.7046C17.8318 25.4944 17.7207 25.2778 17.6207 25.056C17.595 24.999 17.5708 24.9417 17.5461 24.8846C17.514 24.8101 17.5853 24.9844 17.5562 24.9086C17.5438 24.8761 17.5306 24.8442 17.5181 24.8117C17.4704 24.6881 17.426 24.5631 17.3851 24.4368C17.3052 24.1912 17.238 23.9411 17.1831 23.6881C17.157 23.5681 17.1336 23.4477 17.1131 23.3265C17.1035 23.2705 17.0947 23.2144 17.0863 23.1584C17.085 23.1492 17.064 23.0097 17.0788 23.1092C17.0926 23.202 17.0752 23.0789 17.073 23.0596C17.0058 22.4846 16.9983 21.9031 17.0432 21.3262C17.0546 21.1791 17.07 21.0322 17.0878 20.8858C17.0917 20.8538 17.0921 20.7748 17.0848 20.9084C17.0871 20.8643 17.0974 20.8193 17.104 20.776C17.1152 20.7023 17.1273 20.6285 17.14 20.555C17.1918 20.2576 17.2577 19.9631 17.3345 19.6713C17.1513 19.8141 16.9685 19.9569 16.7856 20.0994C16.9837 20.1039 17.1816 20.1144 17.3789 20.1319C17.4699 20.1401 17.561 20.1496 17.6521 20.1609C17.6781 20.1642 17.7038 20.1674 17.7297 20.1707C17.643 20.1586 17.6311 20.1569 17.6944 20.1661C17.7329 20.1721 17.7713 20.1776 17.8099 20.1837C18.1769 20.2427 18.5401 20.3267 18.8958 20.4373C19.0649 20.4898 19.2326 20.5487 19.3979 20.613C19.4447 20.6315 19.4917 20.6503 19.5384 20.6696C19.5616 20.6791 19.5849 20.689 19.608 20.699C19.5356 20.6675 19.5192 20.6605 19.5586 20.678C19.6444 20.7171 19.7303 20.756 19.8149 20.7976C20.1415 20.9581 20.4549 21.1442 20.754 21.3538C20.6668 21.1344 20.5796 20.9148 20.4923 20.6953C20.0325 22.0437 19.9487 23.5069 20.2264 24.9045C20.4882 26.2233 21.0971 27.4369 21.9118 28.4845C22.325 29.0163 22.7986 29.4968 23.3148 29.9234C23.4365 30.0239 23.5551 30.0942 23.7174 30.0942C23.8569 30.0942 24.0238 30.0307 24.1199 29.9234C24.3102 29.7111 24.3674 29.303 24.1199 29.0986C23.6714 28.7278 23.2547 28.3164 22.8822 27.8655C22.8396 27.8142 22.7978 27.7622 22.7563 27.7098C22.7306 27.6772 22.7053 27.644 22.6799 27.6114C22.5973 27.5054 22.7544 27.7127 22.6866 27.62C22.5948 27.495 22.505 27.3682 22.42 27.2386C22.259 26.9938 22.1103 26.7407 21.9762 26.4794C21.9106 26.3516 21.8482 26.2221 21.7894 26.091C21.7724 26.053 21.7563 26.0145 21.7394 25.9765C21.6772 25.8372 21.7859 26.0945 21.733 25.9625C21.708 25.8997 21.6834 25.8365 21.6597 25.7733C21.5468 25.4706 21.452 25.1605 21.3789 24.845C21.3459 24.7022 21.3165 24.5587 21.2914 24.4144C21.2783 24.3384 21.2669 24.2621 21.2555 24.1858C21.2397 24.0798 21.2576 24.1899 21.2583 24.2074C21.2566 24.1673 21.2487 24.1263 21.2444 24.0861C21.2148 23.8085 21.201 23.5287 21.2028 23.2496C21.2039 23.0465 21.2132 22.8432 21.2311 22.6409C21.2397 22.5412 21.2469 22.4396 21.2631 22.3409C21.2363 22.5021 21.262 22.3563 21.2666 22.3259C21.2752 22.2695 21.2843 22.2133 21.294 22.157C21.3625 21.7655 21.463 21.3813 21.591 21.0059C21.678 20.7506 21.5291 20.487 21.3293 20.3473C19.9978 19.4143 18.3892 18.9709 16.7865 18.9341C16.5385 18.9284 16.3015 19.119 16.2376 19.3621C15.6631 21.5441 15.7526 23.9181 16.7823 25.9461C17.634 27.6236 19.086 28.8734 20.8012 29.541C21.7285 29.9019 22.728 30.0724 23.718 30.0949C24.0158 30.1017 24.3009 29.8219 24.2872 29.5116C24.2718 29.1887 24.0359 28.9344 23.7167 28.9272L23.7169 28.9273Z" fill="white"/>
</svg>
