<svg width="48" height="48" viewBox="0 0 48 48" fill="none" xmlns="http://www.w3.org/2000/svg">
<path d="M29.9898 29.7595C30.0643 29.7599 30.1378 29.7411 30.2029 29.7049C30.3436 29.6198 30.4776 29.5234 30.6031 29.4169C31.3402 28.7968 31.7121 27.8448 31.5906 26.889L31.4006 25.2391V25.2393C31.3735 25.0007 31.1582 24.8292 30.9198 24.8563C30.6812 24.8834 30.5099 25.0985 30.5368 25.3371L30.7268 26.9898C30.816 27.6534 30.5623 28.3169 30.0532 28.7519C29.9628 28.8242 29.8666 28.8889 29.7652 28.9447C29.5957 29.0423 29.513 29.2418 29.5636 29.4308C29.6142 29.6197 29.7855 29.7511 29.9811 29.7509L29.9898 29.7595Z" fill="white"/>
<path d="M31.4558 35.1135C31.4558 34.8749 31.2626 34.6815 31.024 34.6815H29.2304V31.2468C30.3002 31.1352 31.2801 30.5971 31.9483 29.754C32.6162 28.9107 32.9163 27.8338 32.7803 26.7668L32.1066 20.9221C32.0831 20.7032 31.8977 20.5379 31.6776 20.5391H25.9192C25.6997 20.5391 25.5151 20.704 25.4902 20.9221L24.8194 26.7668C24.652 28.124 25.1844 29.4736 26.2331 30.3513C26.8426 30.85 27.5838 31.1611 28.3666 31.2468V34.6815H26.5844C26.3458 34.6815 26.1524 34.8749 26.1524 35.1135C26.1524 35.3519 26.3458 35.5453 26.5844 35.5453H31.0241C31.2627 35.5453 31.4559 35.3519 31.4559 35.1135H31.4558ZM31.2946 21.403L31.548 23.6256H26.0488L26.2964 21.403H31.2946ZM25.6771 26.8734L25.9506 24.4982H31.6488L31.9195 26.8734H31.9193C32.0338 27.7692 31.7567 28.6707 31.1592 29.3477C30.5615 30.0245 29.7014 30.4114 28.7984 30.4092C27.8938 30.4118 27.0319 30.0238 26.434 29.3449C25.8361 28.6659 25.5603 27.762 25.6774 26.8648L25.6771 26.8734Z" fill="white"/>
<path d="M22.8049 34.2231V23.6046C22.8338 22.8006 22.6782 22.0009 22.35 21.2666C22.2695 21.0622 22.1801 20.8262 22.0793 20.541C21.9526 20.1839 21.7913 19.8299 21.6331 19.4873C21.3951 19.0446 21.2207 18.5706 21.1147 18.0794L20.9621 15.2002H20.9623C21.0854 15.1193 21.1601 14.9821 21.1609 14.8345V13.9018C21.1609 13.5963 21.0396 13.3033 20.8235 13.0874C20.6076 12.8713 20.3146 12.75 20.0091 12.75H18.5408C18.2353 12.75 17.9425 12.8713 17.7264 13.0874C17.5105 13.3033 17.3892 13.5963 17.3892 13.9018V14.8347V14.8345C17.389 14.9829 17.4651 15.1211 17.5906 15.2002L17.441 18.0593C17.3384 18.5497 17.1658 19.0229 16.9284 19.4643C16.773 19.807 16.6089 20.161 16.4794 20.5296C16.3786 20.8176 16.2894 21.0508 16.2087 21.258C15.8789 21.9938 15.7232 22.7958 15.7538 23.6015V34.2231C15.7724 34.5929 15.9361 34.9401 16.2095 35.1897C16.4828 35.4394 16.8437 35.5711 17.2134 35.5563H21.345C21.7151 35.5717 22.0762 35.4404 22.3498 35.1908C22.6233 34.9409 22.7868 34.5931 22.8048 34.2231L22.8049 34.2231ZM21.9411 30.1692H18.607V24.3821H21.9411V30.1692ZM18.2558 13.9019C18.2558 13.7428 18.3847 13.6139 18.5436 13.6139H20.0121C20.0884 13.6139 20.1617 13.6442 20.2155 13.6982C20.2695 13.7522 20.2999 13.8253 20.2999 13.9019V14.4027H18.2557L18.2558 13.9019ZM16.6204 34.2232V23.6016C16.5898 22.8977 16.726 22.1961 17.0176 21.5547C17.1012 21.3444 17.1931 21.1026 17.3056 20.7917C17.4179 20.4808 17.5733 20.1382 17.7232 19.8157C18.0029 19.2831 18.1973 18.7099 18.2989 18.1168L18.4516 15.2549H20.107L20.2597 18.1341V18.16C20.3657 18.7437 20.5597 19.3078 20.8355 19.833C20.9851 20.1583 21.1407 20.4951 21.253 20.8118C21.3653 21.1285 21.4488 21.3503 21.541 21.5633H21.5408C21.8184 22.1759 21.9541 22.8431 21.9381 23.5153H18.175C17.9366 23.5153 17.7432 23.7087 17.7432 23.9473V30.5894C17.7432 30.828 17.9366 31.0212 18.175 31.0212H21.9411V34.2229C21.8979 34.5125 21.6366 34.7181 21.345 34.6922H17.2162C16.9248 34.7181 16.6633 34.5125 16.6203 34.2229L16.6204 34.2232Z" fill="white"/>
</svg>
