<svg width="64" height="64" viewBox="0 0 64 64" fill="none" xmlns="http://www.w3.org/2000/svg">
<path d="M43.143 19H20.857C20.3646 19 19.8921 19.1953 19.5439 19.5431C19.1956 19.8908 19 20.3625 19 20.8543V35.6894C19 36.1811 19.1956 36.6528 19.5439 37.0006C19.8921 37.3485 20.3646 37.5439 20.857 37.5439H31.381V41.9448C28.5325 42.0136 25.7222 42.6175 23.0978 43.7252C22.7893 43.8608 22.6461 44.218 22.7759 44.5287C22.8147 44.6992 22.9255 44.8447 23.0797 44.9277C23.234 45.0105 23.4165 45.0228 23.5806 44.9614C26.2326 43.7993 29.0973 43.1994 31.9936 43.1994C34.8898 43.1994 37.7547 43.7993 40.4067 44.9614C40.4883 44.9788 40.5725 44.9788 40.6542 44.9614C40.9962 45.0263 41.326 44.802 41.3908 44.4608C41.4558 44.1193 41.2315 43.7901 40.8895 43.7252C38.2692 42.6178 35.4632 42.0136 32.619 41.9449V37.5439H43.143C43.6354 37.5439 44.1079 37.3486 44.4561 37.0006C44.8044 36.6529 45 36.1812 45 35.6894V20.8543C45 20.3625 44.8044 19.8908 44.4561 19.5431C44.1079 19.1953 43.6354 19 43.143 19L43.143 19ZM43.762 35.6895C43.762 35.8536 43.6968 36.0107 43.5807 36.1267C43.4645 36.2425 43.3071 36.3076 43.143 36.3076H20.857C20.5152 36.3076 20.238 36.031 20.238 35.6895V20.8544C20.238 20.5131 20.5153 20.2363 20.857 20.2363H43.143C43.3071 20.2363 43.4645 20.3014 43.5807 20.4174C43.6968 20.5334 43.762 20.6906 43.762 20.8544V35.6895Z" fill="white"/>
</svg>
