<svg width="48" height="48" viewBox="0 0 48 48" fill="none" xmlns="http://www.w3.org/2000/svg">
<path d="M23.8291 20.6007C22.173 20.6007 20.8325 21.8848 20.8325 23.4711C20.8325 25.0574 22.173 26.3414 23.8291 26.3414C25.4852 26.3414 26.8258 25.0574 26.8258 23.4711C26.8258 21.8848 25.4852 20.6007 23.8291 20.6007ZM23.8291 25.6238C22.6069 25.6238 21.6211 24.6795 21.6211 23.5088C21.6211 22.338 22.6069 21.3561 23.8291 21.3561C25.0514 21.3561 26.0372 22.3003 26.0372 23.4711C26.0372 24.6418 25.0514 25.6238 23.8291 25.6238ZM35.264 19.2411H26.0372C25.367 18.9389 24.6177 18.75 23.8292 18.75C23.0407 18.75 22.2914 18.9389 21.6212 19.2411H12.3944C12.1579 19.2411 12 19.392 12 19.6189V27.3236C12 27.5502 12.1576 27.7014 12.3944 27.7014H12.7888V28.2302C12.7888 28.7966 13.2619 29.25 13.8535 29.25H16.0223C16.6136 29.25 17.087 28.7969 17.087 28.2302V27.7014H21.5821C22.2523 28.0036 23.0016 28.1925 23.7901 28.1925C24.5786 28.1925 25.3279 28.0036 25.9981 27.7014L30.5323 27.7012V28.2299C30.5323 28.7963 31.0054 29.2497 31.597 29.2497H33.7657C34.3571 29.2497 34.8304 28.7966 34.8304 28.2299V27.7012H35.2248C35.4614 27.7012 35.6193 27.5502 35.6193 27.3234L35.619 19.6186C35.6583 19.4297 35.5007 19.2411 35.2639 19.2411L35.264 19.2411ZM16.3373 28.23C16.3373 28.3809 16.2191 28.4945 16.0612 28.4945H13.8924C13.7348 28.4945 13.6163 28.3812 13.6163 28.23V27.7012H16.3764L16.3766 28.23H16.3373ZM17.1259 26.9459H12.7884V19.9965H20.4773C19.4916 20.8651 18.8606 22.1115 18.8606 23.4712C18.8606 24.8309 19.4916 26.0773 20.4773 26.9459H17.1259ZM23.829 27.4747C21.542 27.4747 19.6494 25.6995 19.6494 23.4713C19.6494 21.243 21.542 19.5055 23.829 19.5055C26.116 19.5055 28.0086 21.2806 28.0086 23.5089C28.0086 25.7374 26.116 27.4747 23.829 27.4747ZM34.0809 28.23C34.0809 28.3809 33.9626 28.4945 33.8048 28.4945H31.636C31.4784 28.4945 31.3599 28.3812 31.3599 28.23V27.7012H34.1199L34.1202 28.23H34.0809ZM34.8695 26.9459H27.1805C28.1663 26.0773 28.7972 24.8309 28.7972 23.4712C28.7972 22.1115 28.1663 20.8651 27.1805 19.9965H34.8695V26.9459ZM31.9515 21.1673C31.9515 20.9407 32.1091 20.7895 32.346 20.7895H33.6472C33.8837 20.7895 34.0416 20.9405 34.0416 21.1673C34.0416 21.3939 33.884 21.5451 33.6472 21.5451H32.346C32.1487 21.5451 31.9515 21.3939 31.9515 21.1673Z" fill="white"/>
</svg>
