<svg width="64" height="64" viewBox="0 0 64 64" fill="none" xmlns="http://www.w3.org/2000/svg">
<path d="M44.6444 28.4617C43.9831 28.4698 43.3323 28.629 42.7418 28.9267C42.8914 28.1985 42.9665 27.4573 42.9663 26.7141C42.9663 26.5724 42.91 26.4364 42.8098 26.3362C42.7096 26.236 42.5736 26.1797 42.4319 26.1797H21.3919C21.0967 26.1797 20.8575 26.419 20.8575 26.7141C20.8431 29.3669 21.7926 31.9344 23.5295 33.9394C21.2645 34.349 19.3535 35.8628 18.4366 37.9742C17.1693 38.6958 16.2808 39.9355 16.005 41.3677C15.9826 41.5299 16.0358 41.6933 16.1494 41.8112L18.8214 44.4832C18.9877 44.6467 19.2406 44.6834 19.4467 44.5741L22.9204 42.6929L26.4261 41.9663H31.0435L34.5064 42.6877L37.9909 44.5796V44.5794C38.1968 44.6889 38.4497 44.6522 38.6159 44.4887L41.288 41.8167C41.4051 41.6983 41.4605 41.5325 41.4378 41.3677C41.1616 39.9414 40.2776 38.7063 39.0167 37.9849C38.7068 37.2854 38.2905 36.6381 37.7823 36.0662C38.0977 35.872 38.4026 35.6616 38.6961 35.4357L38.8671 35.2968C39.936 34.5112 41.0797 34.7624 42.4158 35.0349C43.1439 35.2159 43.889 35.3197 44.6388 35.3448C45.8684 35.3448 47.0045 34.6889 47.6194 33.6239C48.2341 32.5591 48.2341 31.2472 47.6194 30.1824C47.0046 29.1176 45.8684 28.4615 44.6388 28.4615L44.6444 28.4617ZM19.276 43.468L17.0741 41.2662C17.3449 40.2983 17.971 39.4682 18.8269 38.9415L21.8946 42.0411L19.276 43.468ZM23.0169 41.6191L19.5324 38.1454C20.4109 36.3208 22.173 35.0826 24.1871 34.8747L25.7316 41.047L23.0169 41.6191ZM30.7179 40.9191L26.7847 40.9189L25.1548 34.3831C25.9356 33.175 27.2755 32.4447 28.7138 32.4432C30.1563 32.485 31.494 33.2062 32.3211 34.3886L30.7179 40.9191ZM40.3746 41.2665L38.1783 43.4628L35.5544 42.0414L38.6432 38.9525L38.643 38.9523C39.482 39.4831 40.0921 40.3086 40.3531 41.2663L40.3746 41.2665ZM37.9645 38.1454L34.5016 41.6191L31.7491 41.0472L33.2882 34.8852H33.2884C35.3013 35.088 37.0643 36.3227 37.943 38.1452L37.9645 38.1454ZM37.0185 35.297C35.9192 34.4464 34.602 33.9242 33.2187 33.7899C32.2021 32.3076 30.5321 31.4079 28.7351 31.3743C27.1004 31.3781 25.5585 32.1351 24.556 33.4265C22.9861 31.729 22.0597 29.5361 21.9373 27.2273H41.9299C41.8717 28.3434 41.6259 29.4418 41.2032 30.4765C40.3768 32.5065 38.8966 34.2029 36.9974 35.297H37.0185ZM44.6823 34.2656L44.6821 34.2653C44.006 34.2391 43.3344 34.1422 42.6781 33.9769C41.9681 33.7989 41.2404 33.7004 40.5085 33.683C41.2071 32.8432 41.7746 31.9027 42.1919 30.8933C42.4459 30.4588 42.8107 30.0995 43.2494 29.8526C43.6879 29.6057 44.1842 29.4797 44.6876 29.4878C45.3399 29.4568 45.9766 29.6944 46.4493 30.1454C46.9219 30.596 47.1893 31.2208 47.1893 31.8739C47.1893 32.5271 46.9219 33.1517 46.4493 33.6026C45.9767 34.0535 45.3399 34.2909 44.6876 34.2602L44.6823 34.2656Z" fill="white"/>
<path d="M30.9689 18.6772C30.21 19.297 29.2695 20.0826 29.2695 21.7073C29.2695 23.9199 31.4072 24.9138 32.5187 25.1168H32.6203C32.9155 25.1433 33.1762 24.9255 33.2027 24.6304C33.2294 24.3352 33.0116 24.0745 32.7165 24.048C32.6203 24.048 30.3383 23.5778 30.3383 21.6913C30.3383 20.5371 30.9314 20.0506 31.6317 19.4842C32.3317 18.9178 32.9729 18.4154 32.9729 17.3466V17.3463C32.9997 16.733 32.7692 16.1363 32.3369 15.7004C31.8101 15.2416 31.133 14.9925 30.4345 15.0002C30.1394 15.0002 29.9001 15.2395 29.9001 15.5346C29.9001 15.8299 30.1394 16.069 30.4345 16.069C30.8568 16.0633 31.2681 16.2028 31.5995 16.4646C31.8233 16.7015 31.9378 17.0212 31.9149 17.3464C31.9256 17.87 31.5835 18.1799 30.9689 18.6772L30.9689 18.6772Z" fill="white"/>
</svg>
