<svg width="40" height="40" viewBox="0 0 40 40" fill="none" xmlns="http://www.w3.org/2000/svg">
<path d="M27.1764 27.4996C27.3603 27.4823 27.5009 27.3273 27.5 27.1425V23.3368C27.5013 23.2412 27.4643 23.149 27.3972 23.081C27.3301 23.0129 27.2385 22.9745 27.1428 22.9745C27.0472 22.9745 26.9556 23.0129 26.8885 23.081C26.8214 23.149 26.7844 23.2412 26.7857 23.3368V26.7854H23.3317C23.2361 26.784 23.1439 26.821 23.0759 26.8881C23.0077 26.9553 22.9695 27.0468 22.9695 27.1425C22.9695 27.2381 23.0077 27.3297 23.0759 27.3968C23.1439 27.464 23.2361 27.501 23.3317 27.4996H27.1429C27.1541 27.5001 27.1652 27.5001 27.1764 27.4996L27.1764 27.4996ZM16.7021 27.4996C16.7969 27.4952 16.8859 27.4533 16.9498 27.3833C17.0136 27.3131 17.047 27.2205 17.0426 27.1258C17.0381 27.031 16.9963 26.942 16.9261 26.8781C16.856 26.8143 16.7633 26.7809 16.6686 26.7854H13.2145V23.3368C13.2159 23.2412 13.1789 23.1491 13.1118 23.0811C13.0446 23.0129 12.9531 22.9746 12.8574 22.9746C12.7618 22.9746 12.6702 23.0129 12.6031 23.0811C12.5359 23.1491 12.4989 23.2412 12.5003 23.3368V27.1425C12.5003 27.3397 12.6602 27.4996 12.8574 27.4996H16.6686C16.6798 27.5001 16.691 27.5001 16.7021 27.4996L16.7021 27.4996ZM27.1818 17.031C27.3658 17.0108 27.5038 16.8534 27.4998 16.6683V12.8571C27.4998 12.66 27.3399 12.5 27.1427 12.5H23.3315C23.2359 12.4987 23.1437 12.5357 23.0757 12.6028C23.0076 12.6699 22.9693 12.7615 22.9693 12.8572C22.9693 12.9528 23.0076 13.0444 23.0757 13.1115C23.1437 13.1786 23.2359 13.2156 23.3315 13.2143H26.7856V16.6683C26.7833 16.7712 26.8255 16.87 26.9014 16.9395C26.9774 17.009 27.0795 17.0423 27.1818 17.031L27.1818 17.031ZM12.8963 17.031C13.0803 17.0108 13.2183 16.8534 13.2143 16.6683V13.2143H16.6683C16.764 13.2156 16.8562 13.1787 16.9242 13.1115C16.9923 13.0444 17.0306 12.9528 17.0306 12.8572C17.0306 12.7615 16.9923 12.67 16.9242 12.6028C16.8562 12.5357 16.764 12.4987 16.6683 12.5001H12.8572C12.66 12.5001 12.5001 12.66 12.5001 12.8572V16.6683C12.4978 16.7712 12.5401 16.87 12.6159 16.9395C12.6919 17.009 12.794 17.0424 12.8963 17.031L12.8963 17.031Z" fill="white"/>
</svg>
