<svg width="64" height="64" viewBox="0 0 64 64" fill="none" xmlns="http://www.w3.org/2000/svg">
<path d="M25.5443 21.0002C21.3845 21.0104 18 24.3984 18 28.5651C18 31.1612 19.3505 33.5914 21.5403 34.9725L21.537 41.1459C21.537 41.8467 22.1834 42.466 22.9212 42.466H25.1552C24.9724 44.4766 23.5948 45.7931 21.6113 45.7931V46.7172C24.1024 46.7172 25.8862 44.991 26.0826 42.466H28.2996C28.9968 42.466 29.5452 41.8873 29.5485 41.1459V34.9924C30.432 34.4475 31.2003 33.7163 31.7891 32.8567L44.133 28.9136L44.1333 21L25.5443 21.0002ZM43.2089 28.2399L31.3086 32.0411L31.3119 32.0546C31.2307 32.0883 31.1563 32.1459 31.1055 32.2272C30.5335 33.0903 29.7584 33.818 28.8581 34.3325C28.6753 34.4373 28.5906 34.6507 28.638 34.8436H28.6246V41.1458C28.6213 41.3387 28.5096 41.5418 28.2997 41.5418H22.9212C22.6978 41.5418 22.4575 41.3387 22.4575 41.1458L22.4643 34.8436H22.4473C22.5082 34.6439 22.4237 34.4205 22.2374 34.3122C20.193 33.1274 18.9238 30.9241 18.9238 28.5648C18.9238 24.9093 21.8922 21.9344 25.5445 21.9241H43.2097L43.2089 28.2399Z" fill="white"/>
<path d="M25.7386 32.9346C23.2584 32.9346 21.2402 30.9166 21.2402 28.4359C21.2402 25.9557 23.2579 23.9375 25.7386 23.9375C28.2193 23.9375 30.237 25.9555 30.237 28.4359C30.2366 30.9166 28.2193 32.9346 25.7386 32.9346ZM25.7386 24.8614C23.7677 24.8614 22.1641 26.465 22.1641 28.436C22.1641 30.4071 23.7676 32.0109 25.7386 32.0109C27.7098 32.0109 29.3136 30.4074 29.3136 28.436C29.3132 26.4655 27.7098 24.8614 25.7386 24.8614Z" fill="white"/>
<path d="M47.5491 23.0872H45.61C45.355 23.0872 45.1484 22.8804 45.1484 22.6256C45.1484 22.3706 45.3553 22.1641 45.61 22.1641H47.5491C47.8041 22.1641 48.0107 22.3709 48.0107 22.6256C48.0107 22.8804 47.8038 23.0872 47.5491 23.0872Z" fill="white"/>
<path d="M47.5491 25.4153H45.61C45.355 25.4153 45.1484 25.2085 45.1484 24.9538C45.1484 24.6988 45.3553 24.4922 45.61 24.4922H47.5491C47.8041 24.4922 48.0107 24.6985 48.0107 24.9538C48.0107 25.208 47.8038 25.4153 47.5491 25.4153Z" fill="white"/>
<path d="M47.5491 27.7435H45.61C45.355 27.7435 45.1484 27.5371 45.1484 27.2819C45.1484 27.0267 45.3553 26.8203 45.61 26.8203H47.5491C47.8041 26.8203 48.0107 27.0267 48.0107 27.2819C48.0107 27.5366 47.8038 27.7435 47.5491 27.7435Z" fill="white"/>
</svg>
