<svg width="63" height="63" viewBox="0 0 63 63" fill="none" xmlns="http://www.w3.org/2000/svg">
<g clip-path="url(#clip0_5707_15984)">
<path d="M8.58008 26.08L8.58008 0L0.0101318 0L0.0101318 26.08H8.58008Z" fill="white"/>
<path d="M8.58008 62.08L8.58008 36H0.0101318L0.0101318 62.08H8.58008Z" fill="white"/>
<path d="M62.4805 26.08V0L53.9105 0V26.08H62.4805Z" fill="white"/>
<path d="M62.4805 62.08V36H53.9105V62.08H62.4805Z" fill="white"/>
<path d="M31.2402 35.0391C33.4494 35.0391 35.2402 33.2482 35.2402 31.0391C35.2402 28.8299 33.4494 27.0391 31.2402 27.0391C29.0311 27.0391 27.2402 28.8299 27.2402 31.0391C27.2402 33.2482 29.0311 35.0391 31.2402 35.0391Z" fill="white"/>
<path d="M31.2402 17.0391C33.4494 17.0391 35.2402 15.2482 35.2402 13.0391C35.2402 10.8299 33.4494 9.03906 31.2402 9.03906C29.0311 9.03906 27.2402 10.8299 27.2402 13.0391C27.2402 15.2482 29.0311 17.0391 31.2402 17.0391Z" fill="white"/>
<path d="M31.2402 53.0391C33.4494 53.0391 35.2402 51.2482 35.2402 49.0391C35.2402 46.8299 33.4494 45.0391 31.2402 45.0391C29.0311 45.0391 27.2402 46.8299 27.2402 49.0391C27.2402 51.2482 29.0311 53.0391 31.2402 53.0391Z" fill="white"/>
</g>
<defs>
<clipPath id="clip0_5707_15984">
<rect width="62.48" height="62.08" fill="white"/>
</clipPath>
</defs>
</svg>
