<svg width="64" height="64" viewBox="0 0 64 64" fill="none" xmlns="http://www.w3.org/2000/svg">
<path d="M44.7533 19H19.2475C18.6281 19.0013 18.0346 19.2483 17.5972 19.6865C17.1597 20.1249 16.9141 20.719 16.9141 21.3383V32.8291C16.9141 33.4483 17.1597 34.0423 17.5972 34.4808C18.0345 34.9192 18.6281 35.1662 19.2475 35.1675H44.7533C45.3726 35.1661 45.9662 34.9192 46.4035 34.4808C46.8411 34.0423 47.0867 33.4483 47.0867 32.8291V21.3383C47.0867 20.719 46.8411 20.1249 46.4035 19.6865C45.9662 19.2483 45.3726 19.0013 44.7533 19ZM21.2239 20.0811H42.7768V22.2334H21.2239V20.0811ZM21.2239 23.3097L42.7768 23.3094V25.4668H21.2239V23.3097ZM21.2239 26.5431H42.7768V28.7005L21.2239 28.7003V26.5431ZM46.0107 32.8293H46.0105C46.0105 33.1627 45.8781 33.4824 45.6423 33.7181C45.4066 33.9541 45.0869 34.0865 44.7533 34.0865H19.2476C18.914 34.0865 18.5943 33.9541 18.3585 33.7181C18.1228 33.4824 17.9904 33.1627 17.9904 32.8293V21.3385C17.989 21.0047 18.121 20.6841 18.357 20.4479C18.5931 20.212 18.9137 20.08 19.2475 20.0813H20.1475V29.2388C20.1475 29.536 20.3884 29.7769 20.6857 29.7769H43.315C43.6122 29.7769 43.8531 29.536 43.8531 29.2388V20.0813H44.7533H44.7531C45.0869 20.08 45.4075 20.212 45.6437 20.4479C45.8796 20.6841 46.0116 21.0047 46.0103 21.3385L46.0107 32.8293Z" fill="white"/>
<path d="M26.7188 37.771C26.5707 37.5232 26.2532 37.4367 25.9997 37.5748L24.4559 38.4499V36.7803C24.4559 36.4831 24.215 36.2422 23.9178 36.2422C23.6205 36.2422 23.3797 36.4831 23.3797 36.7803V38.4499L21.871 37.5699C21.6129 37.4213 21.2831 37.5102 21.1345 37.7686C20.9859 38.0268 21.0748 38.3565 21.3332 38.5051L22.8418 39.3851L21.3332 40.2651C21.0748 40.4138 20.9859 40.7435 21.1345 41.0019C21.2831 41.2601 21.6129 41.349 21.871 41.2006L23.3797 40.3206V42.1662V42.1659C23.3797 42.4632 23.6205 42.7041 23.9178 42.7041C24.215 42.7041 24.4559 42.4632 24.4559 42.1659V40.3206L25.9645 41.2006C26.2229 41.349 26.5527 41.2601 26.7013 41.0019C26.8497 40.7435 26.7608 40.4138 26.5026 40.2651L24.994 39.3851L26.5026 38.5051C26.6292 38.4371 26.7233 38.3213 26.7639 38.1832C26.8046 38.0454 26.7884 37.8968 26.7188 37.771L26.7188 37.771Z" fill="white"/>
<path d="M42.5255 37.7711C42.3755 37.5255 42.0603 37.4395 41.8064 37.5748L40.2625 38.4548V36.7803C40.2625 36.4831 40.0217 36.2422 39.7244 36.2422C39.4274 36.2422 39.1865 36.4831 39.1865 36.7803V38.4499L37.6779 37.5699C37.4195 37.4213 37.0897 37.5102 36.9411 37.7686C36.7925 38.0268 36.8814 38.3565 37.1398 38.5051L38.6484 39.3851L37.1398 40.2651C36.8814 40.4138 36.7925 40.7435 36.9411 41.0019C37.0897 41.2601 37.4195 41.349 37.6779 41.2006L39.1865 40.3206V42.1662V42.1659C39.1865 42.4632 39.4274 42.7041 39.7244 42.7041C40.0217 42.7041 40.2625 42.4632 40.2625 42.1659V40.3206L41.7712 41.2006C42.0257 41.3185 42.3284 41.2231 42.4692 40.9804C42.6101 40.7377 42.543 40.4279 42.3143 40.2651L40.8056 39.3851L42.3143 38.5051C42.574 38.3597 42.6683 38.0323 42.5255 37.7711H42.5255Z" fill="white"/>
<path d="M34.6196 42.173C34.4732 41.9258 34.1575 41.8392 33.9057 41.9768L32.3569 42.8568V41.0967H32.3566C32.3566 40.7995 32.1158 40.5586 31.8187 40.5586C31.5215 40.5586 31.2806 40.7995 31.2806 41.0967V42.8568L29.772 41.9768C29.6474 41.8883 29.4916 41.8562 29.3423 41.8885C29.193 41.9209 29.0642 42.0145 28.9874 42.1467C28.9108 42.2787 28.8933 42.437 28.9391 42.5827C28.9851 42.7284 29.0902 42.848 29.2289 42.9123L30.7376 43.7922L29.2289 44.6723C29.0518 44.846 29.0152 45.1177 29.1396 45.3323C29.264 45.5466 29.5181 45.6497 29.7569 45.5823L31.2656 44.7023V46.4624C31.2656 46.7596 31.5065 47.0005 31.8035 47.0005C32.1007 47.0005 32.3416 46.7596 32.3416 46.4624V44.7023L33.8502 45.5823C34.1086 45.731 34.4384 45.6421 34.587 45.3837C34.7356 45.1255 34.6467 44.7955 34.3883 44.6471L32.8797 43.7671L34.3883 42.8871C34.646 42.7511 34.7486 42.4343 34.6195 42.173L34.6196 42.173Z" fill="white"/>
<path d="M21.0339 31.1954C20.8559 31.2001 20.6824 31.2522 20.5311 31.3463L20.3952 31.457V31.4567C20.3555 31.5016 20.3187 31.5486 20.2846 31.5977C20.2529 31.6451 20.226 31.6956 20.2042 31.7486C20.175 31.8076 20.153 31.87 20.1386 31.9345C20.1335 31.9931 20.1335 32.0521 20.1386 32.1105C20.1427 32.3493 20.2415 32.5765 20.413 32.7424C20.5847 32.9083 20.8153 32.9995 21.0539 32.9954C21.2925 32.9914 21.5199 32.8926 21.6858 32.7211C21.8517 32.5496 21.9427 32.319 21.9386 32.0804C21.9348 31.8415 21.836 31.6143 21.6645 31.4484C21.493 31.2823 21.2624 31.1914 21.0238 31.1954L21.0339 31.1954Z" fill="white"/>
</svg>
