<svg width="48" height="48" viewBox="0 0 48 48" fill="none" xmlns="http://www.w3.org/2000/svg">
<g opacity="0.8">
<path d="M24.0015 13.5C21.2169 13.5 18.5465 14.6063 16.5773 16.5753C14.6082 18.5443 13.502 21.2148 13.502 23.9995C13.502 26.7843 14.6082 29.4545 16.5773 31.4238C18.5463 33.3928 21.2168 34.4991 24.0015 34.4991C26.7862 34.4991 29.4565 33.3928 31.4257 31.4238C33.3948 29.4548 34.501 26.7843 34.501 23.9995C34.4979 21.216 33.3907 18.5473 31.4223 16.5788C29.454 14.6104 26.7851 13.5032 24.0015 13.5L24.0015 13.5ZM24.0015 33.5936C21.4569 33.5936 19.0167 32.5828 17.2174 30.7835C15.4181 28.9844 14.4073 26.544 14.4073 23.9994C14.4073 21.4548 15.4181 19.0146 17.2174 17.2153C19.0165 15.416 21.4569 14.4052 24.0015 14.4052C26.5461 14.4052 28.9863 15.416 30.7856 17.2153C32.5849 19.0144 33.5957 21.4548 33.5957 23.9994C33.5928 26.543 32.5811 28.9819 30.7824 30.7804C28.9839 32.5791 26.5452 33.5908 24.0014 33.5937L24.0015 33.5936Z" fill="#FBF8E4"/>
<path d="M24.4542 23.8131V19.9839C24.4542 19.7339 24.2514 19.5312 24.0015 19.5312C23.7516 19.5312 23.5488 19.7339 23.5488 19.9839V24.0008C23.549 24.1208 23.5966 24.236 23.6814 24.3208L26.5759 27.2153V27.2152C26.7531 27.3899 27.0378 27.389 27.2137 27.213C27.3897 27.0371 27.3906 26.7523 27.2159 26.5752L24.4542 23.8131Z" fill="#FBF8E4"/>
<path d="M24.0015 16.9921C24.2514 16.9921 24.4542 16.7895 24.4542 16.5396V15.8511C24.4542 15.6012 24.2514 15.3984 24.0015 15.3984C23.7516 15.3984 23.5488 15.6012 23.5488 15.8511V16.5396C23.5488 16.7895 23.7516 16.9921 24.0015 16.9921Z" fill="#FBF8E4"/>
<path d="M24.0015 31.3047C23.7516 31.3047 23.5488 31.5073 23.5488 31.7574V32.446C23.5488 32.6959 23.7516 32.8986 24.0015 32.8986C24.2514 32.8986 24.4542 32.6959 24.4542 32.446V31.7574C24.4542 31.5073 24.2514 31.3047 24.0015 31.3047Z" fill="#FBF8E4"/>
<path d="M16.3929 23.6953H15.7045C15.4546 23.6953 15.252 23.8979 15.252 24.148C15.252 24.3979 15.4546 24.6005 15.7045 24.6005H16.3929C16.643 24.6005 16.8456 24.3979 16.8456 24.148C16.8456 23.8979 16.643 23.6953 16.3929 23.6953Z" fill="#FBF8E4"/>
<path d="M31.6109 24.6005H32.2993C32.5492 24.6005 32.7518 24.3979 32.7518 24.148C32.7518 23.8979 32.5492 23.6953 32.2993 23.6953H31.6109C31.361 23.6953 31.1582 23.8979 31.1582 24.148C31.1582 24.3979 31.361 24.6005 31.6109 24.6005Z" fill="#FBF8E4"/>
</g>
</svg>
