<svg width="70" height="71" viewBox="0 0 70 71" fill="none" xmlns="http://www.w3.org/2000/svg">
<g clip-path="url(#clip0_5704_15671)">
<path d="M49.8804 10.7227H19.9298H10.5786H10.3555V70.1775H19.9298V20.2859H49.8804V70.1775H59.4436V20.2859V10.7227H49.8804Z" fill="white"/>
<path d="M4.46357 49.099C6.92874 49.099 8.92715 47.1006 8.92715 44.6355C8.92715 42.1703 6.92874 40.1719 4.46357 40.1719C1.99841 40.1719 0 42.1703 0 44.6355C0 47.1006 1.99841 49.099 4.46357 49.099Z" fill="white"/>
<path d="M4.46357 29.0131C6.92874 29.0131 8.92715 27.0147 8.92715 24.5495C8.92715 22.0843 6.92874 20.0859 4.46357 20.0859C1.99841 20.0859 0 22.0843 0 24.5495C0 27.0147 1.99841 29.0131 4.46357 29.0131Z" fill="white"/>
<path d="M24.862 8.92715C27.3272 8.92715 29.3256 6.92874 29.3256 4.46357C29.3256 1.99841 27.3272 0 24.862 0C22.3968 0 20.3984 1.99841 20.3984 4.46357C20.3984 6.92874 22.3968 8.92715 24.862 8.92715Z" fill="white"/>
<path d="M44.9479 8.92715C47.4131 8.92715 49.4115 6.92874 49.4115 4.46357C49.4115 1.99841 47.4131 0 44.9479 0C42.4828 0 40.4844 1.99841 40.4844 4.46357C40.4844 6.92874 42.4828 8.92715 44.9479 8.92715Z" fill="white"/>
<path d="M4.46357 69.185C6.92874 69.185 8.92715 67.1865 8.92715 64.7214C8.92715 62.2562 6.92874 60.2578 4.46357 60.2578C1.99841 60.2578 0 62.2562 0 64.7214C0 67.1865 1.99841 69.185 4.46357 69.185Z" fill="white"/>
<path d="M65.5378 49.099C68.003 49.099 70.0014 47.1006 70.0014 44.6355C70.0014 42.1703 68.003 40.1719 65.5378 40.1719C63.0726 40.1719 61.0742 42.1703 61.0742 44.6355C61.0742 47.1006 63.0726 49.099 65.5378 49.099Z" fill="white"/>
<path d="M65.5378 29.0131C68.003 29.0131 70.0014 27.0147 70.0014 24.5495C70.0014 22.0843 68.003 20.0859 65.5378 20.0859C63.0726 20.0859 61.0742 22.0843 61.0742 24.5495C61.0742 27.0147 63.0726 29.0131 65.5378 29.0131Z" fill="white"/>
<path d="M65.5378 69.185C68.003 69.185 70.0014 67.1865 70.0014 64.7214C70.0014 62.2562 68.003 60.2578 65.5378 60.2578C63.0726 60.2578 61.0742 62.2562 61.0742 64.7214C61.0742 67.1865 63.0726 69.185 65.5378 69.185Z" fill="white"/>
</g>
<defs>
<clipPath id="clip0_5704_15671">
<rect width="70" height="70.1785" fill="white"/>
</clipPath>
</defs>
</svg>
