<svg width="120" height="120" viewBox="0 0 120 120" fill="none" xmlns="http://www.w3.org/2000/svg">
<g clip-path="url(#clip0_5155_12418)">
<path d="M39.0312 119.829V106.629H41.7702V117.257H47.5905V119.657H39.0312V119.829Z" fill="#1E2927"/>
<path d="M54.7814 110.054H57.6915L52.7272 119.997H51.8713L47.0781 109.883H49.8171L52.3848 115.54L54.7814 110.054Z" fill="#1E2927"/>
<path d="M58.8906 106.456C58.8906 105.942 59.0618 105.599 59.4042 105.256C59.7465 104.914 60.0889 104.742 60.6025 104.742C61.116 104.742 61.4584 104.914 61.8008 105.256C62.1431 105.599 62.3143 105.942 62.3143 106.456C62.3143 106.971 62.1431 107.314 61.8008 107.656C61.4584 107.999 61.116 108.171 60.6025 108.171C60.0889 108.171 59.7465 107.999 59.4042 107.656C59.0618 107.314 58.8906 106.799 58.8906 106.456ZM59.233 119.828V110.056H61.972V119.828H59.233Z" fill="#1E2927"/>
<path d="M71.2157 110.054H74.1258L69.3327 119.997H68.4767L63.6836 109.883H66.4225L68.9903 115.54L71.2157 110.054Z" fill="#1E2927"/>
<path d="M60.0843 27.2578H52.8945V53.315H60.0843V27.2578Z" fill="white"/>
<path d="M56.4892 13.3711C53.9214 13.3711 51.8672 15.2568 51.8672 17.8282C51.8672 20.2282 53.9214 22.2854 56.4892 22.2854C58.8857 22.2854 60.9399 20.3997 60.9399 17.8282C61.1111 15.2568 59.0569 13.3711 56.4892 13.3711Z" fill="white"/>
<path d="M68.4756 44.2275C68.4756 50.9132 72.4128 53.9989 78.9178 53.9989C80.8008 53.9989 82.8551 53.656 84.3957 53.3132V47.4846C84.3957 47.4846 81.3144 47.4846 80.4585 47.4846C77.206 47.4846 75.6653 46.456 75.6653 43.3703V33.0846H84.2245L81.9991 27.0846H75.6653V20.5703H68.4756V27.0846H64.3672V33.0846H68.4756V44.2275Z" fill="white"/>
<path d="M101.854 55.715L114.351 27.2578H106.819L99.9714 44.4007L93.6376 27.2578H86.1055L96.0341 51.7721L95.1782 53.4864C93.8087 56.4007 92.0969 57.0864 89.7003 57.0864C88.8444 57.0864 86.619 57.0864 86.619 57.0864V62.7435C87.9885 63.0864 89.7003 63.4292 91.241 63.4292C96.3765 63.6007 99.4578 61.0292 101.854 55.715Z" fill="white"/>
<path d="M59.9131 60.5156H52.8945V95.3156H59.9131V60.5156Z" fill="white"/>
<path d="M80.2864 68.5703C77.0339 68.5703 74.4661 69.7703 72.5831 71.4846V69.0846H66.0781V95.1418H73.2678V79.8846C73.2678 76.7989 75.3221 74.7417 78.2322 74.7417C81.1423 74.7417 83.0253 76.7989 83.0253 79.8846V95.1418H90.0439V79.0275C90.2151 72.856 86.449 68.5703 80.2864 68.5703Z" fill="white"/>
<path d="M110.243 68.5703C106.991 68.5703 104.423 69.7703 102.54 71.4846V69.0846H96.0352V95.1418H103.225V79.8846C103.225 76.7989 105.279 74.7417 108.189 74.7417C111.099 74.7417 112.982 76.7989 112.982 79.8846V95.1418H120.001V79.0275C120.001 72.856 116.235 68.5703 110.243 68.5703Z" fill="white"/>
<path d="M31.4993 24.6857C31.6705 24.6857 31.6705 24.6857 31.8417 24.6857C35.9501 24.6857 39.545 26.9143 41.428 30.1714L47.0771 26.7429C43.9957 21.4286 38.1755 18 31.6705 18C31.4993 18 31.4993 18 31.3281 18V24.6857H31.4993Z" fill="white"/>
<path d="M32.0095 54C38.5145 54 44.3347 50.4 47.416 45.2571L41.767 41.8286C39.8839 45.0857 36.2891 47.3143 32.1807 47.3143C26.018 47.3143 20.8825 42.3429 20.8825 36H14.0352C14.0352 45.9429 22.0808 54 32.0095 54Z" fill="white"/>
<path d="M15.7489 0L0 10.8V36H14.0371C14.0371 35.6571 14.0371 35.3143 14.0371 34.9714C14.5506 25.7143 22.2539 18.1714 31.4979 18V10.8L15.7489 0Z" fill="#1E2927"/>
<path d="M20.7148 36.0018H31.6706V24.6875C25.508 24.8589 20.7148 29.8304 20.7148 36.0018Z" fill="#1E2927"/>
</g>
<defs>
<clipPath id="clip0_5155_12418">
<rect width="120" height="120" fill="white"/>
</clipPath>
</defs>
</svg>
