<svg width="148" height="148" viewBox="0 0 148 148" xmlns="http://www.w3.org/2000/svg">
<g clip-path="url(#clip0_5942_3341)">
<path d="M48.1367 147.79V131.51H51.5148V144.618H58.6931V147.578H48.1367V147.79Z" fill="currentColor"/>
<path d="M67.5613 135.737H71.1504L65.0277 148H63.9721L58.0605 135.525H61.4386L64.6055 142.503L67.5613 135.737Z" fill="currentColor"/>
<path d="M72.627 131.298C72.627 130.664 72.8381 130.241 73.2603 129.818C73.6826 129.395 74.1048 129.184 74.7382 129.184C75.3716 129.184 75.7938 129.395 76.2161 129.818C76.6384 130.241 76.8495 130.664 76.8495 131.298C76.8495 131.932 76.6384 132.355 76.2161 132.778C75.7938 133.201 75.3716 133.412 74.7382 133.412C74.1048 133.412 73.6826 133.201 73.2603 132.778C72.8381 132.355 72.627 131.721 72.627 131.298ZM73.0492 147.789V135.738H76.4272V147.789H73.0492Z" fill="currentColor"/>
<path d="M87.8286 135.737H91.4178L85.5062 148H84.4506L78.5391 135.525H81.9171L85.084 142.503L87.8286 135.737Z" fill="currentColor"/>
<path d="M74.1056 33.6172H65.2383V65.7543H74.1056V33.6172Z"/>
<path d="M69.6711 16.4902C66.5042 16.4902 63.9707 18.8159 63.9707 21.9874C63.9707 24.9474 66.5042 27.4845 69.6711 27.4845C72.6269 27.4845 75.1604 25.1588 75.1604 21.9874C75.3716 18.8159 72.838 16.4902 69.6711 16.4902Z"/>
<path d="M84.4518 54.5482C84.4518 62.7939 89.3077 66.5997 97.3306 66.5997C99.653 66.5997 102.186 66.1768 104.087 65.754V58.5654C104.087 58.5654 100.286 58.5654 99.2307 58.5654C95.2193 58.5654 93.3192 57.2968 93.3192 53.4911V40.8054H103.875L101.131 33.4054H93.3192V25.3711H84.4518V33.4054H79.3848V40.8054H84.4518V54.5482Z"/>
<path d="M125.621 68.7143L141.033 33.6172H131.744L123.299 54.76L115.487 33.6172H106.197L118.443 63.8515L117.387 65.9658C115.698 69.56 113.587 70.4058 110.631 70.4058C109.575 70.4058 106.831 70.4058 106.831 70.4058V77.3829C108.52 77.8058 110.631 78.2286 112.531 78.2286C118.865 78.44 122.665 75.2686 125.621 68.7143Z"/>
<path d="M73.8945 74.6348H65.2383V117.555H73.8945V74.6348Z"/>
<path d="M99.0196 84.5703C95.0082 84.5703 91.8413 86.0503 89.5189 88.1646V85.2046H81.4961V117.342H90.3634V98.5246C90.3634 94.7189 92.897 92.1817 96.4861 92.1817C100.075 92.1817 102.398 94.7189 102.398 98.5246V117.342H111.054V97.4675C111.265 89.856 106.62 84.5703 99.0196 84.5703Z"/>
<path d="M135.967 84.5703C131.955 84.5703 128.789 86.0503 126.466 88.1646V85.2046H118.443V117.342H127.311V98.5246C127.311 94.7189 129.844 92.1817 133.433 92.1817C137.023 92.1817 139.345 94.7189 139.345 98.5246V117.342H148.001V97.4675C148.001 89.856 143.356 84.5703 135.967 84.5703Z"/>
<path d="M38.8478 30.4469C39.059 30.4469 39.059 30.4469 39.2701 30.4469C44.3371 30.4469 48.7708 33.1955 51.0932 37.2126L58.0604 32.984C54.2601 26.4297 47.0818 22.2012 39.059 22.2012C38.8478 22.2012 38.8478 22.2012 38.6367 22.2012V30.4469H38.8478Z"/>
<path d="M39.4808 66.6004C47.5037 66.6004 54.682 62.1604 58.4823 55.8175L51.5151 51.589C49.1927 55.6061 44.759 58.3547 39.692 58.3547C32.0914 58.3547 25.7576 52.2232 25.7576 44.4004H17.3125C17.3125 56.6632 27.2355 66.6004 39.4808 66.6004Z"/>
<path d="M19.4237 0L0 13.32V44.4H17.3124C17.3124 43.9771 17.3124 43.5543 17.3124 43.1314C17.9458 31.7143 27.4465 22.4114 38.8474 22.2V13.32L19.4237 0Z" fill="currentColor"/>
<path d="M25.5469 44.3996H39.059V30.4453C31.4584 30.6567 25.5469 36.7882 25.5469 44.3996Z" fill="currentColor"/>
</g>
<defs>
<clipPath id="clip0_5942_3341">
<rect width="148" height="148" fill="transparent"/>
</clipPath>
</defs>
</svg>
